<?xml version="1.0" encoding="utf-8"?>
<!-- Generator: Adobe Illustrator 24.1.1, SVG Export Plug-In . SVG Version: 6.00 Build 0)  -->
<svg version="1.1" id="Layer_1" xmlns="http://www.w3.org/2000/svg" xmlns:xlink="http://www.w3.org/1999/xlink" x="0px" y="0px"
	 viewBox="0 0 1920 1080" style="enable-background:new 0 0 1920 1080;" xml:space="preserve">
<style type="text/css">
	.st0{fill:#E5D76E;}
	.st1{fill:#419B81;}
	.st2{fill:#83C796;}
	.st3{fill:#3BB28D;}
	.st4{fill:#22543D;}
	.st5{opacity:0.31;fill:#FFFFFF;enable-background:new    ;}
</style>
<g id="Layer_2_1_">
</g>
<g id="Layer_1_1_">
	<g id="Layer_6">
	</g>
	<g id="Layer_9">
	</g>
	
		<ellipse transform="matrix(0.7081 -0.7061 0.7061 0.7081 -420.4388 955.1167)" class="st0" cx="945" cy="986.1" rx="3.7" ry="3.5"/>
	
		<ellipse transform="matrix(0.7081 -0.7061 0.7061 0.7081 -385.3088 932.1069)" class="st0" cx="934.8" cy="932.1" rx="2.5" ry="2.3"/>
	<ellipse transform="matrix(0.7081 -0.7061 0.7061 0.7081 -88.2368 96.5521)" class="st0" cx="72.7" cy="155" rx="6.3" ry="6"/>
	<ellipse transform="matrix(0.7081 -0.7061 0.7061 0.7081 -40.5137 109.9935)" class="st0" cx="112.8" cy="104" rx="4.3" ry="4.1"/>
	<path class="st1" d="M1035.6,1002.2c0,0-9.4-1.5-13-6.5s-2-8.2,2.3-7.8c4.4,0.4,3.9,2.5,7,5.6s3.4,5.9,3.4,5.9L1035.6,1002.2z"/>
	<path class="st2" d="M1368.5,1178.5c-2.2,11.4-195.2,84.4-271,132.4c-175,110.9-707.5,267.5-995.4,24.9
		c-506.3-426.6-158.3-686.1,41.2-662.5c183.5,28.8,111.5,164.7,254,205.8c135.2,39.1,171.9-36.2,264.2-11.9
		c133.6,35.1,113,77.9,203.4,135.3c98.9,62.8,184.6-52.3,286.1-43.5C1259.7,968.5,1383.3,1100.2,1368.5,1178.5z"/>
	<path id="_x32_2_10_" class="st2" d="M853.3,951.1c-7.2,7-18.9,14.2-29.9,9.4c-0.7-0.2-1.9,4.6-2.5,7.2c7.7-2.4,15.3-7.1,23.4-5.1
		c-6.9,7.7-17.5,7.2-25.4,13.3c-7.1,5.5-6,15.7-9.4,24.2c-0.2,0.7-2.4,0.8-2.2,0.2c0.2-10,5.1-18.1,8.7-27.3
		c-10-0.2-20.5-7.1-24.6-16.7c9.8,0.9,19.6,4.7,27.2,11.6c0.6-2.7,1.1-4.7,2.5-7.2c-11.4,0.1-19.5-11.1-23.8-20.1
		c10.3,1.7,19.6,7.5,24.6,16.7c0.3-4.2-0.7-8.8,1.6-12.5c-0.9,0.5-1,1.2-1.2,1.9c-11.5-2.8-20.9-11.4-24.5-23.1
		c10.2,2.4,19.3,8.9,25.8,17.6c0.8-3.4,2.3-6.6,1.7-10.3c-11,0.9-18.5-9.5-24.4-17.4c-1.2-1.8-2.2-3.5-3.1-5
		c2.7,0.6,5.4,1.5,8.1,2.5c7.7,3.4,15.7,8.9,19.4,16.9c5-8.8-9.5-13.7-13.4-20.6c-1.4-1.7-2.8-3.3-4.2-5c-2.8-3.3-5.5-6.7-8.3-10
		c7.9,2.8,15.2,7.1,20.8,13c1.4,1.5,2.8,3,4,4.7s2.4,3.5,3.4,5.4c-0.2-2.2,1.1-4.8,0.4-5c-1.8-1.9-3.6-3.8-5.5-5.6
		c-9.1-8.9-18.3-15.7-23.9-27.2c11,4.8,20.5,12.8,27.6,22.4c-3.6-11.6-12-24.3-4-36.7c8.2,10.6,5.4,24.9,6.1,37.2
		c1.6-9.6,6.9-19.8,16.8-22.4c-1.4,7.8-4.6,15.4-9,22.3c-2.2,3.4-4.6,6.6-7.2,9.6c-1,1.2-0.5,2.1-0.1,3.6c1.5-1.8,3.1-3.7,4.7-5.5
		c5-5.3,11-9.9,18.9-9.6c-0.6,2.7-2.5,4.4-3.7,6.3c-1.6,2.3-3.8,4.1-6.2,5.7c-2.4,1.6-5,3.1-7.3,4.6c-4.6,2.6-8.7,8-8,13.9
		c5.5-5.1,11.8-10,19.5-10.4c2.6-0.2,5.2-0.1,7.9,0.6c-1.2,1.6-2.6,3.1-4.1,4.3c-6.2,9-21,4.7-26.1,17c9.3-2.8,19.6-7.5,29.5-3.7
		c-5.8,6.4-15.1,12.1-24,10.7c-4-1-8.2,4.4-5.6,5.8c6.9,3.8,13.1-4,21.2-3.7C848.6,949.8,851.5,950.1,853.3,951.1z"/>
	<path class="st1" d="M1012.9,1019.8l11,14c0,0-26.9,2.4-42-9.2c-10.1-8.6-14.8-13.9-15.5-15.2c-9.8,8.8-19.4,16.9-29.5,24.8
		c3.5-1.4,18.2-5.7,39.1,11.4c1.1,0.7,18.5,19.3,18.5,19.3s-28.3,7.5-46.4-12c-9.1-9.8-13.1-15.7-13.4-17
		c-12,9.5-21.6,16.1-29.3,20.1c0,0,22.9,6.9,25.1,30.9l2,20.7c0,0-26.7-11.1-27.3-37.9c-0.6-11.4-2.3-12.2-2.1-12.6
		c-2,1-1.6,0.6-3.1,1c-3.4,0.8-11.2,3.2-20.8,6.5c5.2,2.8,25.6,15.7,18.8,46.9c-25.6-15.6-21.5-41.1-20.3-46.5
		c-26.9,9-66.5,23.2-66.5,23.2l0.6-5c0,0,34.5-11.1,63.8-21.2c-4.4-0.6-18.3-3.5-25.8-17.9c-6.4-12.2-7.4-23.5-7.4-23.5
		s13.7,5.1,23.9,19.3c0.7,1,4.2,6,4.5,7.3l6,14.5c7.4-2.5,14.3-5,20.4-7.1c1.6-0.6,3.4-1.3,5.2-2.3c-2.4-3.5-18.1-27.7-16.1-41
		c2.3-14.3,4.3-22,4.3-22s19.5,19.6,19.3,38c0,1.2-3.5,19.7-4.7,23.5c8.6-4.2,15.1-9,26.6-17.8c-2.1-3.2-15.6-29.6-11.1-49.1
		c0.1-0.8,0.4-1.5,0.7-2.1c4.5-10.7,9.3-15.2,9.3-15.2s15.4,22.5,12.2,44.3c-1.9,9-6.6,17.3-8.3,20.1c10.4-7.9,21.1-16.8,30.9-25.2
		c-1.7-2.3-18.1-24.2-17.3-39.8c0.9-16.4,0.9-16.4,0.9-16.4s19.7,15.4,21.5,36.2c0.1,1.4-0.1,2.9-0.6,4.3l-2.4,13.7
		c10.3-8.9,17.6-15.5,24.2-21.7c-2.8-3.8-17.8-24.5-16.9-39.4c0.9-16.4,0.9-16.4,0.9-16.4s19.7,15.3,21.5,36.1
		c0.1,1.4-0.1,3-0.5,4.4l-3.1,13.4c4.9-4.5,6-5.6,7.1-6.6c1.1-2.5,12.2-23.6,27-29.6c1.2-0.5,2.6-0.8,3.9-0.7l15-0.4
		c0,0-14.5,23.4-29,27c-10.5,2.6-11.7,4.6-16.3,4.3c-1.4,2.3-2.3,2.9-6.6,7.5c4.2-2.3,20.9-9.4,38.5,6.4
		c10.7,9.6,11.8,15.2,11.8,15.2s-27.7,2-40.9-10.1c-9.7-8.1-11.3-9.4-11.3-9.5c-6.4,6.7-15.3,15.2-25,24c3.7-1.2,22.5-6,42,9.2
		C1011,1017.8,1012,1018.7,1012.9,1019.8z"/>
	<path class="st1" d="M773.5,956.4l-11.3,0.5c0,0,10,14,21.9,16.4c8.3,1.3,12.9,0.4,13.9,0.3c-0.1,8.4-0.1,16.7,0.2,24.8
		c-0.7-2.3-4.8-10.4-21.8-13.5c-0.8-0.2-17-0.9-17-0.9s8.2,16.8,25.1,17.4c8.5,0.3,12.9-1.4,13.8-1.8c0.4,9.7,0.7,16,2.1,21.3
		c0,0-12.3-5.9-24.8,3.1l-10.8,7.6c0,0,16.4,8.2,29.6-2.5c5.8-4.4,6.5-5.4,6.6-5.6c0.3,1.4,0.7,2.4,1.1,3.4c1,1.9,2.7,5.7,5,11.6
		c-3.4-1.4-17.8-4.7-30,11.6c18.1,5.9,28.7-6.7,30.8-9.6c6.9,16.7,16.4,41.7,16.4,41.7l2.2-2.3c0,0-9-21.3-16.3-39.6
		c2.1,1.9,9.2,7.3,19.4,5c8.5-2,14.4-6.2,14.4-6.2s-8.2-4.5-19.3-3.5c-0.8,0-4.7,0.5-5.3,0.8l-9.9,2.2c-1.9-4.5-3.2-7.9-4.6-11.7
		c-0.4-1.1-0.8-2.2-1.1-3.4c2.7-0.3,20.9-2.8,26.4-9.3c6-7,8.8-11.3,8.8-11.3s-17.5-1.2-26.3,6.5c-0.5,0.5-8.2,9.5-9.5,11.6
		c-1.5-6-1.9-12.2-2.4-21.4c2.4-0.3,20.8-3.2,28.4-13.5c0.3-0.3,0.5-0.8,0.7-1.2c3.3-6.7,3.5-10.8,3.5-10.8s-17.3,2-26.5,12.6
		c-3.6,4.6-5.6,9.7-6.3,11.6c-0.5-8.3-0.6-16.5-0.6-24.7c1.8-0.1,19.2-1.3,26.4-8.2c7.5-7.3,7.5-7.3,7.5-7.3s-15.6-3.1-26.4,4.6
		c-0.8,0.5-1.4,1.3-1.9,2.1l-5.6,8c0-8.7,0.2-16,0.4-21.8c3.1-0.2,19.2-1.6,26-8.2c7.5-7.3,7.5-7.3,7.5-7.3s-15.6-3.2-26.3,4.7
		c-0.8,0.5-1.4,1.3-1.9,2l-5.2,8c0.2-4.2,0.7-7,0.7-8c0.7-1.6,5.8-14.8,2.6-24.4c-1.1-3.1-7.3-9.6-7.3-9.6s-5.2,16.5-0.8,25.1
		c3.1,6.1,4.6,8.4,4.8,8.9c-0.5,1.6-0.8,4.4-1.2,8.4c-0.6-3-4-15.1-19-17c-9.1-1.2-12.3,0.6-12.3,0.6s10.6,14.2,21.8,15.6
		c8,1.3,9.2,1.5,9.3,1.5c-0.6,5.9-1,13-1.1,21.3c-1-2.3-6.5-12.7-21.9-15.8C775.3,956.4,774.4,956.3,773.5,956.4z"/>
	<path id="_x31_7_10_" class="st3" d="M915.6,1013.5"/>
	<path id="_x32_2_2_" class="st1" d="M910.3,1044.3c-21.8,13.5-67.1,1.4-70.6-7.8c-0.1-0.4-0.2-0.8-0.2-1.1
		c-2.1,4.8-4.2,9.7-6.3,14.3c11.1-0.2,42.3,0.8,52.1,8c-16.3,10.3-52.7,7.7-56.6,2.4c-12.6,28.4-21.9,49.2-21.9,49.2
		s-11.7,1.2-3.5-8c2.5-2.7,10.8-20.4,21.3-43.7c-8.1,1-36.4-22.6-38.2-42.9c13.7,0.2,37.8,27,42.7,33.2c1.7-4,3.6-8.3,5.5-12.5
		c-0.2,0.2-0.3,0.3-0.5,0.5c-6,4.4-33.3-26.5-29.7-48.3c14.3,3.8,32.5,35.2,33.5,38.1c0,0,0.2,0.7,0.3,1.8c2.7-6.4,5.6-13,8.5-19.6
		c-0.6,0.7-1.5,1.4-2.6,2.2c-5.9,4.4-35.4-30.3-31.8-52.1c13.3,3.6,33.4,37.2,36.9,44.2c2.8-6.2,5.4-12.3,7.9-18.2
		c-0.9,0.9-2.1,1.9-3.8,3.1c-6,4.4-36-33-33.6-56.6c13.9,4.7,35,40.1,39.5,48.7c1.7-3.9,3.2-7.7,4.9-11.3c-0.3,0.2-0.7,0.4-1.1,0.6
		c-6.7,3.2-32-40.1-25.4-62.7c11.7,6.6,25.5,40.5,30.1,53.7c2-4.9,4.1-9.5,5.9-13.8c-0.3,0.2-0.8,0.4-1.3,0.7
		c-6.7,3.2-28.8-41.7-22.1-64.4c10.8,6.1,23.5,35.9,29,50.6c0.7-1.5,1.9-4.6,1.9-4.6c-4.6-10.5,8.1-50,21.9-57.5
		c9.6,20.5-9.7,57.6-18.1,58.8l-2.3,5.6c10.6-7.9,40.2-27.7,53.3-25.3c-5.6,23.2-55.5,47.2-59.5,40.2c-1,2.5-2.1,5.1-3.2,7.7
		c8.3-2.8,51.5-14,65.2-6.6c-14.6,20-67.3,22.5-68.6,14.6c-2.3,5.5-4.7,11.1-7.1,16.8c7.5-1,56.4-3.3,68.6,6.8
		c-18.1,16.9-72.8,10.4-72.5,2.3c-1.7,3.9-3.3,7.9-5,11.8c11.8,0.7,55.8,5.7,66.5,17c-21.8,13.5-68.1,2.5-70.1-5.4
		c-0.3-0.9-0.4-1.8-0.5-2.5c-2.1,5-4.3,10-6.5,14.9C855.4,1027.9,899.7,1033.1,910.3,1044.3z"/>
	<path id="_x32_2_1_" class="st1" d="M827.4,1004c-1.2,2.2-2.4,4.5-3.8,6.7c-11.4,14.2-22.5,33.8-42.7,34.9c1.9,2.6,3.9,5.8,5.7,9.1
		c9-12.8,21.9-20.9,34.4-29.6c-9.5,12.1-14.6,30.8-30.5,35.5c6.7,10.4,18.7,16.9,22.9,28.7c0.5,0.7-2.6,1.9-3.1,1.3
		c-8-17.1-20.6-31.8-39.4-31c-1.7-0.2-3.3-0.3-5-0.6c-1.6-0.2-3.3-0.6-4.8-1c-2-0.7-4-1.5-5.8-2.6c1.7-1.2,3.4-2.2,5.2-2.9
		c2.1-1,4.2-1.6,6.4-1.8c2.2-0.2,4.4-0.1,6.6,0.2c4.2,0.7,8.1,2.4,12,4.2c-1.3-6.6-8.3-7.7-13.9-9c-2.9-0.8-5.8-1.9-8.6-3.3
		c-1.5-0.8-3-1.5-4.5-2.4c-1.4-0.8-2.9-1.7-4.3-2.5c-1.8-1.3-3.6-2.6-5-4.1c1.8-0.8,3.6-1.3,5.3-1.5c2.3-0.3,4.4,0,6.4,0.6
		s4,1.5,5.8,2.5s3.5,2.3,5.2,3.5s3.5,2.3,5.4,3.2c-1.8-1.7-2.6-4-3.6-6.1c-1-2.2-1.9-4.2-4.1-5.6c-2.9-0.1-5.9-0.7-8.9-1.7
		c-3-0.9-5.9-2.2-8.7-3.8c-1.7-1-3.4-1.8-5-2.7s-3.2-1.5-4.6-1.9c-1.8-1.1-3.4-2.5-4.9-4.2c2-1.1,4.1-1.8,6.2-2.2
		c2.4-0.5,4.7-0.3,7,0.2c2.2,0.6,4.4,1.5,6.4,2.6c3.6,1.6,7.2,5.1,11,7.4c-1.7-4.4-3.4-9.3-5-13.7c1.3,3.1-2.8,6.7-5.4,4.5
		c-1.7-0.9-3.3-1.6-5-2.5s-3.3-1.8-5-2.8c-1.8-0.7-3.6-1.3-5.6-1.3c-1.9-0.5-3.9-1.2-5.7-2c-3.7-1.6-7.2-3.6-10-6.6
		c4.4-1.9,8.8-2.4,13.4-2.1c2.2,0.2,4.5,0.5,6.7,1c1.6,0.4,3.2,0.9,4.7,1.5c4.4,1.7,8.2,4,11.2,7.4c-0.7-7.2-7.9-10-13.5-12
		c-2.1-0.8-4-1.6-6-2.5c-6-2.7-11.6-5.9-17.1-9.1c-1.8-1.5-3.3-3.1-4.4-4.8c1.5-0.5,3.4-0.7,5.5-0.7c7.6,0.3,14.7,3.3,21.3,7.4
		c1.6,1,3.3,2,4.8,3.1s3,2.2,4.5,3.5c-0.4-2.1-1.2-3.7-2.1-5.1c-1-1.4-2.3-2.5-3.7-3.6c-5.8-4-14.1-5.6-20.2-9.9
		c-1.5-0.7-3.1-1.3-4.6-1.8c-1.7-1-3.3-2-4.9-3.1c-3-2.2-5.6-4.6-7.2-7.2c1.4-0.5,3.1-0.7,5.1-0.6c2,0,4.2,0.2,6.6,0.6
		c2.2,0.1,4.3,0.5,6.3,1.2c2.1,0.6,4,1.5,5.9,2.5c4,1.9,7.1,4.7,10.9,6.4c-3.5-4-5.7-9.1-8.4-13.3c-1.3-2.3-2.5-4.7-3.5-7.1
		c-3.1-7.3-4.9-15.1-4.7-22.7c8,3.5,11.8,10.6,14,18.5c0.6,2,1,4,1.4,6.1c1.2,6,0.9,12.5,1.8,18.5c0.5-7.6,2.9-15.5,4.7-22.5
		c0.7-2.4,1.7-4.7,2.7-7c2.1-4.5,5-8.7,8.6-12.2c0.4,2.3,0.5,4.7,0.5,6.9c0,2.3-0.1,4.6-0.3,6.9c-0.2,12.5-8.8,25.6-9.1,37.8
		c-0.1,2.5,0.2,4.8,0.9,7.3c0.6-2.7,1.3-5.3,2.2-7.8s2-4.8,3.3-7.1c5.1-9.2,12.8-16.8,20.8-23.3c1.7-1.3,3.5-2.5,5.3-3.6
		c-0.4,2.7-0.9,5.3-1.7,7.8c-1.9,5.7-4.8,11-8,16.2c-1,1.7-2.2,3.4-3.3,5.1c-4.3,8.3-15.4,16.3-14.5,25.9c0.2,1.9,0.8,3.9,2.1,6
		c1.2-1.8,2.5-3.6,3.8-5.3s2.8-3.4,4.2-5.1c8.6-9.8,18.9-18.2,29.8-26c1.9-1.1,3.8-2.2,5.7-3.2c-0.5,2.1-1.1,4.3-1.8,6.5
		c-1.1,2.1-2.2,4.2-3.4,6.3s-2.5,4.1-3.8,6.1c-7.9,12.2-19.2,21.1-32.1,28.6c-0.7,0.5,1,5.4,2.2,5.1c17-7.5,27.5-23,43.9-30.5
		c2.2-1,4.5-1.9,6.8-2.6c-1.1,2.2-2.4,4.4-3.7,6.6c-1.4,1.9-2.7,3.9-4.1,5.8c-1.5,2-2.9,3.9-4.4,5.9c-3,3.6-6.2,7.3-9.7,10.8
		c-1.7,1.7-3.6,3.4-5.5,4.9s-3.9,2.8-6,4.1c-4.2,2.3-8.8,4-14,4.4c0.9,1.6,1.8,3.4,2.7,5.1c0.9,1.8,1.8,3.5,2.7,5.1
		c8.8-11.7,21.1-19.2,32.9-27c2-1.3,4-2.6,6-3.9c2-1.3,4-2.7,5.9-4C824.3,1004.6,826,1004.1,827.4,1004z"/>
	<path id="_x32_2_7_" class="st2" d="M905.6,1071.7c-13.7,2.2-33.7-13.4-33.6-18.7c0-0.2,0.1-0.5,0.1-0.6c-2.1,1.9-4.2,4-6.1,5.8
		c5.6,2.2,20.9,9.3,24.3,14.9c-10.3,1.7-27.8-7.3-28.7-10.7c-12.3,11.5-21.3,19.9-21.3,19.9s-6.1-1.8-0.1-4.7
		c1.8-0.8,9.7-7.9,19.8-17.3c-4.2-1.2-13.4-18.9-10-29.4c6.8,2.9,13.1,21.4,14.3,25.5c1.7-1.7,3.5-3.4,5.4-5.1
		c-0.2,0.1-0.3,0.1-0.4,0.1c-3.9,1-11-20.2-4.7-30.3c6.3,4.9,8.8,24.4,8.7,26.1c0,0-0.1,0.4-0.2,1c2.7-2.6,5.6-5.3,8.3-7.9
		c-0.5,0.2-1.1,0.4-1.8,0.5c-3.9,0.9-11.3-22.5-4.9-32.6c5.8,4.6,8.8,25.6,9.1,29.8c2.7-2.5,5.2-5,7.8-7.5c-0.7,0.2-1.5,0.5-2.5,0.8
		c-3.9,1-11-24-4.9-35.3c5.9,5.3,9,27.3,9.5,32.5c1.6-1.6,3.3-3.1,4.8-4.6c-0.2,0-0.4,0.1-0.7,0.1c-4,0.2-7.5-26.6,0.6-36.6
		c4.4,5.8,4.2,25.5,3.7,33.1c2.1-2,4.1-3.9,5.8-5.7c-0.2,0-0.5,0-0.8,0c-4,0.2-5.6-26.8,2.5-36.7c4.1,5.3,4.2,22.8,3.8,31.3
		c0.7-0.6,1.9-1.9,1.9-1.9c-0.1-6.2,14.5-23.2,23-24c0.4,12.3-17,26.7-21.5,25.5l-2.4,2.4c6.9-1.7,25.9-5.3,31.9-1.4
		c-7.7,10.4-37.5,11.9-38.1,7.5c-1,1-2.1,2.1-3.2,3.2c4.7,0.3,28.6,3.8,33.9,10.4c-11.5,6.9-38.2-2.9-37.2-7.1
		c-2.3,2.2-4.6,4.6-7.1,6.9c4,1.1,28.8,10.1,32.8,17.8c-12.6,4.6-38.5-10.1-36.6-14.1c-1.6,1.6-3.3,3.2-5,4.8
		c5.7,2.9,26.6,14.6,29.5,22.4c-13.7,2.2-34.5-13-33.8-17.4c0.1-0.5,0.2-0.9,0.3-1.4c-2.1,2.1-4.3,4.1-6.3,6.1
		C881.8,1052.1,902.7,1063.9,905.6,1071.7z"/>
	<path id="_x31_7_1_" class="st3" d="M17.3,928.5"/>
	<path id="_x32_2_9_" class="st1" d="M92.7,1057.9c-39.4,10.1-102.3-29.6-103.3-45.1c0-0.7,0.1-1.3,0.2-1.8
		c-5.5,6.3-11,12.7-16.3,18.7c16.9,4.9,63.8,21.2,75.1,36.7c-29.6,7.9-83.4-13.2-87-23.1c-32.5,37.1-56.4,64.3-56.4,64.3
		s-18.4-3.7-1.5-13.8c5.1-3,26-25.7,52.8-56.1c-12.8-2.4-44.5-51.4-37.7-83c20.7,6.7,44.5,58.7,49,70.4c4.4-5.3,9.4-10.9,14.3-16.4
		c-0.4,0.2-0.6,0.4-1,0.5c-11.2,3.8-37.9-55.8-22.2-87.3c19.9,12.6,32.6,68.7,32.8,73.5c0,0,0,1.2-0.3,2.9
		c7.2-8.4,14.7-17,22.1-25.6c-1.3,0.7-3,1.4-5,2c-11.1,3.9-39.3-62.6-23.6-94c18.4,11.7,33,72.2,35.1,84.4
		c7.1-8.1,14-16.1,20.6-23.9c-1.8,0.9-4.1,1.8-7.2,2.9c-11.2,3.8-38.9-67-24.3-101.6c18.8,13.7,34.1,77.3,36.9,92.4
		c4.3-5.1,8.5-10.1,12.7-14.9c-0.6,0.1-1.2,0.3-2,0.4c-11.6,1.7-29.5-75.9-8.8-107c14.6,15.5,19.5,73.3,20.3,95.5
		c5.4-6.5,10.7-12.4,15.5-18.1c-0.6,0.1-1.5,0.2-2.3,0.4c-11.6,1.7-23.9-76.8-3-108c13.5,14.3,18.6,65.5,20.1,90.4
		c1.8-2,5.1-6.1,5.1-6.1c-2-18.1,35.9-72,60.3-76.7c4.9,35.6-42,82.7-55.3,80.5l-6.2,7.5c19.8-6.9,73.9-23,92.6-13.2
		C175.4,898,88.4,911,85.7,898.4c-2.7,3.3-5.5,6.7-8.4,10.2c13.8-0.4,84.6,3.1,102,20.8c-31.6,23.5-112.6,2.3-110.8-10.3
		c-6.1,7.2-12.3,14.6-18.7,22.1c11.9,2.1,87,21.6,100.8,42.7c-35.4,17-115.2-18.7-110.9-30.8c-4.3,5.1-8.8,10.4-13.1,15.5
		c17.6,6.7,81.9,35,92.7,57.2C79.9,1035.9,15,997.5,15.7,984.6c0-1.5,0.3-2.8,0.4-4c-5.6,6.6-11.2,13.1-16.8,19.5
		C17.3,1007.2,81.9,1035.9,92.7,1057.9z"/>
	<path id="_x32_2_8_" class="st1" d="M86.3,1108.2c-28.9-7.2-55.6-55.1-50.8-65.4c0.3-0.4,0.5-0.8,0.7-1.1c-5.7,2.1-11.6,4.4-17,6.3
		c9.2,9.1,33.6,36,35.6,50c-22-5.3-49-37.9-47.9-45.4c-34,12.6-58.9,21.6-58.9,21.6s-10.5-8.8,3.8-9.5c4.3-0.1,25.9-7.5,53.8-17.6
		c-7.4-6-10.7-48.8,4.9-66.8c11,11.6,8,53.6,6.9,62.6c4.8-1.9,9.8-3.7,15-5.6c-0.4,0-0.6,0-0.9-0.1c-8.6-1.4-4.8-49.3,16.3-64.1
		c8.5,15.1-3.1,55.9-4.6,59c0,0-0.4,0.7-1.3,1.7c7.6-2.9,15.6-5.8,23.2-8.7c-1.2,0-2.4-0.1-4-0.5c-8.4-1.5-3.4-54.2,17.8-68.8
		c7.7,14-4.1,58.2-7,66.7c7.4-2.6,14.6-5.4,21.7-8.3c-1.5-0.1-3.3-0.3-5.7-0.6c-8.6-1.4-1.6-56.8,20-74.1
		c7.2,15.5-5.2,61.8-8.6,72.5c4.6-1.8,9.1-3.4,13.4-5.2c-0.5-0.1-0.9-0.1-1.4-0.5c-8.1-3,7.6-59.1,32-72.1
		c3.9,15.2-13.3,54.1-20.5,68.7c5.8-2.3,11.4-4.3,16.3-6.3c-0.5-0.1-1.1-0.5-1.6-0.6c-8.1-3,11.5-57.9,36-70.7
		c3.6,14-11,48.8-18.8,65.3c1.9-0.6,5.4-2.1,5.4-2.1c5.1-12.4,48.4-33.8,65.9-28.2c-9.4,24.7-56.2,38.6-64,32.5l-6.7,2.7
		c15.2,2.5,55.8,11.2,64.4,24c-23.9,14.1-84.5-8-81.8-17.2c-2.8,1.2-5.9,2.4-9,3.6c9,4.6,53.5,31.7,58.4,49.2
		c-28.6,4-73.4-38-67.8-45.5c-6.4,2.5-13.1,5.2-19.8,7.7c7,5.4,48.5,44.4,50,62.9c-28.8-1.5-67.8-52.5-60.7-58.8
		c-4.6,1.8-9.4,3.6-13.9,5.3c8.9,10.5,40.6,51.3,39.6,69.4c-28.9-7.2-57.4-54.9-52.3-63c0.6-1,1.2-1.6,1.7-2.5
		c-5.9,2.4-11.9,4.6-17.6,6.7C55.6,1049.1,87.1,1090.2,86.3,1108.2z"/>
	<path id="_x32_2_4_" class="st2" d="M811.1,1041.5c0,7.4-2.2,17.3-10.3,20.7c-0.5,0.3,1.5,3.3,2.6,5c2.7-5.3,4.1-11.7,9.3-15.1
		c0.6,7.6-5.1,13-6,20.3c-0.7,6.6,5.3,11.2,8,17.4c0.3,0.5-0.8,1.7-1,1.3c-5.2-5.2-7-12-10-18.6c-5.2,5.2-14.3,7.2-21.5,4.5
		c5.5-4.7,12.6-8,20.1-8.5c-1.1-1.7-1.9-3-2.6-5c-5.8,6.1-15.9,4.7-22.8,2.3c6.2-4.6,14.1-6.5,21.5-4.5c-2.1-2.3-5-4.1-5.8-7.2
		c-0.2,0.7,0.1,1.1,0.4,1.6c-7.4,4.7-16.8,5.2-24.8,1.2c6.5-4.1,14.6-5.7,22.6-4.7c-1.4-2.2-2.3-4.6-4.6-6.2c-5.1,6.3-14.5,5-21.7,4
		c-1.6-0.3-3-0.6-4.3-0.9c1.7-1.1,3.6-2.1,5.5-3c5.7-2.4,12.8-3.8,18.9-1.6c-2.1-7.1-12.2-2-17.8-3.5c-1.6-0.1-3.2-0.2-4.8-0.3
		c-3.2-0.2-6.4-0.5-9.5-0.7c5.6-2.7,11.6-4.4,17.6-4.4c1.5,0,3,0.1,4.5,0.3c1.5,0.2,3.1,0.5,4.6,1c-1.3-1-2-3-2.5-2.8
		c-2,0-3.9,0-5.7,0c-9.4,0.3-17.7,1.7-26.6-1.3c8.2-3.4,17.3-4.3,26-3.2c-8-4-19-6.1-21.5-16.7c9.8,1.1,16,9.9,22.9,15.9
		c-4.3-5.8-6.9-13.8-3.3-20.4c3.4,4.7,5.8,10.4,7.2,16.2c0.7,2.9,1.2,5.8,1.4,8.7c0.1,1.1,0.8,1.3,1.8,1.9c-0.2-1.7-0.4-3.5-0.5-5.3
		c-0.3-5.4,0.4-10.9,4.6-15c1.1,1.7,1.1,3.6,1.4,5.2c0.4,2,0.2,4.1-0.1,6.2s-0.9,4.2-1.3,6.2c-1,3.8-0.2,8.7,3.3,11.4
		c0.1-5.5,0.7-11.4,4.5-15.7c1.2-1.5,2.6-2.8,4.3-3.9c0.2,1.5,0.3,3,0.2,4.4c1.6,7.9-8.2,13.5-4.3,22.6c3.3-6.3,6.1-14.2,13.2-17.5
		c0.4,6.4-1.3,14.2-6.6,18.2c-2.6,1.6-1.9,6.6,0.2,6c5.6-1.7,4.6-9,8.9-13.1C808,1043.3,809.6,1041.9,811.1,1041.5z"/>
	
		<ellipse transform="matrix(0.873 -0.4877 0.4877 0.873 170.5954 940.1894)" class="st4" cx="1890.7" cy="142.5" rx="3.8" ry="3.6"/>
	
		<ellipse transform="matrix(0.873 -0.4877 0.4877 0.873 -228.0387 977.0148)" class="st4" cx="1762.1" cy="926.4" rx="10.6" ry="10.1"/>
	
		<ellipse transform="matrix(0.873 -0.4877 0.4877 0.873 -192.3391 967.7193)" class="st1" cx="1762.1" cy="853.2" rx="32.1" ry="30.5"/>
	
		<ellipse transform="matrix(0.873 -0.4877 0.4877 0.873 -215.3368 979.1755)" class="st1" cx="1772.6" cy="903.1" rx="5.1" ry="4.9"/>
	
		<ellipse transform="matrix(0.2724 -0.9622 0.9622 0.2724 1251.1604 1918.9301)" class="st3" cx="1894.4" cy="132.2" rx="4.7" ry="4.5"/>
	<ellipse transform="matrix(0.9349 -0.355 0.355 0.9349 -287.0599 326.416)" class="st0" cx="746" cy="945.5" rx="5.8" ry="5.5"/>
	
		<ellipse transform="matrix(0.668 -0.7442 0.7442 0.668 -387.4047 1136.0624)" class="st0" cx="1079.5" cy="1002.2" rx="4" ry="4.2"/>
	<g>
		
			<ellipse transform="matrix(0.668 -0.7442 0.7442 0.668 -623.3119 387.6136)" class="st0" cx="122.7" cy="892.3" rx="6.5" ry="6.8"/>
		
			<ellipse transform="matrix(0.668 -0.7442 0.7442 0.668 -609.5393 396.5402)" class="st0" cx="139.6" cy="881.4" rx="1.6" ry="1.6"/>
		
			<ellipse transform="matrix(0.668 -0.7442 0.7442 0.668 -567.789 395.6475)" class="st0" cx="159.5" cy="834.1" rx="3.6" ry="3.8"/>
	</g>
	
		<ellipse transform="matrix(0.3055 -0.9522 0.9522 0.3055 -205.8675 1490.2914)" class="st0" cx="918.7" cy="886.3" rx="6" ry="6.3"/>
	<circle class="st2" cx="1832.2" cy="107.2" r="21.8"/>
	<circle class="st2" cx="1677.7" cy="924.8" r="71.4"/>
	<path class="st1" d="M73.4,697.1c0,0-9.5,0.8-14.2-3.1c-4.7-4-3.9-7.4,0.3-8.2c4.3-0.7,4.4,1.4,8.1,3.7c3.8,2.3,4.7,4.9,4.7,4.9
		L73.4,697.1z"/>
	<rect x="-788.4" y="473.5" class="st2" width="335.6" height="36.1"/>
</g>
<g id="Layer_4">
</g>
<g id="Layer_3_2_">
	<path class="st5" d="M165.3,1016.8H31.1c-7.7,0-13.9,6.2-13.9,13.9v8.7c0,7.7,6.2,13.9,13.9,13.9h134.1c7.5,0,13.6-6.1,13.6-13.5
		v-9.4C178.8,1022.9,172.7,1016.8,165.3,1016.8z M41.5,1033.3c-0.8,0.6-1.8,1-3.2,1.1c-0.4,0-0.7,0.1-1.2,0.1h-1.7v5.7h-1.7v-14.6
		h3.7c0.6,0,1.2,0,1.7,0.1c2.5,0.4,3.7,1.8,3.7,4.1C42.9,1031.3,42.4,1032.4,41.5,1033.3z M51.7,1030.7c-0.5-0.1-0.8-0.2-1.2-0.2
		c-0.9,0-1.6,0.4-2.2,1.1c-0.6,0.7-0.9,1.6-0.9,2.7v5.9h-1.6v-10.9h1.4l0.2,2h0.1c0.4-0.7,0.9-1.3,1.4-1.6c0.6-0.4,1.2-0.6,1.9-0.6
		c0.5,0,0.9,0,1.3,0.1L51.7,1030.7z M62.7,1034.9h-7.6c0,1.3,0.4,2.3,1,2.9c0.6,0.7,1.5,1,2.6,1c1.2,0,2.3-0.3,3.5-0.7v1.5
		c-0.6,0.3-1.1,0.4-1.6,0.5s-1.1,0.2-1.9,0.2c-1.6,0-2.9-0.5-3.8-1.5c-0.9-1-1.4-2.4-1.4-4.1c0-1.8,0.4-3.1,1.3-4.2
		c0.9-1,2-1.6,3.5-1.6c1.4,0,2.4,0.4,3.2,1.4c0.8,0.9,1.2,2.1,1.2,3.6V1034.9z M71.3,1030.7c-0.4-0.1-0.8-0.2-1.2-0.2
		c-0.9,0-1.6,0.4-2.2,1.1s-0.9,1.6-0.9,2.7v5.9h-1.6v-10.9h1.4l0.2,2h0.1c0.4-0.7,0.9-1.3,1.4-1.6c0.6-0.4,1.2-0.6,1.9-0.6
		c0.5,0,0.9,0,1.3,0.1L71.3,1030.7z M82.5,1040.2h-1.6v-7.1c0-0.9-0.2-1.6-0.6-2s-1-0.7-1.9-0.7c-1.1,0-2,0.3-2.5,0.9
		s-0.8,1.6-0.8,3.1v5.7h-1.6v-10.9h1.3l0.3,1.5h0.1c0.3-0.5,0.8-1,1.4-1.3s1.3-0.4,2-0.4c1.3,0,2.3,0.3,2.9,1c0.7,0.6,1,1.7,1,3
		C82.5,1032.9,82.5,1040.2,82.5,1040.2z M93.6,1040.2h-1.1l-0.3-1.6h-0.1c-0.5,0.7-1.1,1.1-1.6,1.4c-0.5,0.2-1.2,0.4-2,0.4
		c-1.1,0-1.9-0.3-2.5-0.8c-0.6-0.6-0.9-1.3-0.9-2.4c0-2.2,1.8-3.4,5.2-3.5l1.8-0.1v-0.7c0-0.9-0.2-1.5-0.5-1.9
		c-0.4-0.4-1-0.6-1.8-0.6c-0.9,0-1.9,0.3-3.1,0.8l-0.5-1.3c0.5-0.3,1.1-0.5,1.7-0.7s1.3-0.3,1.9-0.3c1.3,0,2.2,0.3,2.9,0.9
		c0.6,0.6,0.9,1.5,0.9,2.8V1040.2z M110.2,1033.3c-1,0.8-2.4,1.2-4.3,1.2h-1.7v5.7h-1.7v-14.6h3.7c3.6,0,5.4,1.4,5.4,4.2
		C111.7,1031.3,111.2,1032.4,110.2,1033.3z M120.5,1030.7c-0.5-0.1-0.8-0.2-1.2-0.2c-0.9,0-1.6,0.4-2.3,1.1
		c-0.6,0.7-0.9,1.6-0.9,2.7v5.9h-1.6v-10.9h1.4l0.2,2h0.1c0.4-0.7,0.9-1.3,1.4-1.6c0.6-0.4,1.2-0.6,1.9-0.6c0.5,0,0.9,0,1.3,0.1
		L120.5,1030.7z M130.7,1040.2h-1.3l-0.3-1.6H129c-0.5,0.7-1.1,1.1-1.6,1.4s-1.2,0.4-2,0.4c-1.1,0-1.9-0.3-2.5-0.8
		c-0.6-0.6-0.9-1.3-0.9-2.4c0-2.2,1.7-3.4,5.2-3.5l1.8-0.1v-0.7c0-0.9-0.2-1.5-0.5-1.9c-0.4-0.4-0.9-0.6-1.7-0.6
		c-0.9,0-1.9,0.3-3.1,0.8l-0.5-1.3c0.5-0.3,1.1-0.5,1.8-0.7c0.6-0.2,1.3-0.3,1.9-0.3c1.3,0,2.2,0.3,2.9,0.9c0.6,0.6,0.9,1.5,0.9,2.8
		V1040.2z M139.8,1039.6c-0.8,0.6-1.8,0.8-3.1,0.8c-1.4,0-2.6-0.2-3.4-0.7v-1.5c0.5,0.3,1.1,0.5,1.7,0.6c0.6,0.2,1.2,0.2,1.7,0.2
		c0.8,0,1.5-0.1,2-0.4s0.7-0.7,0.7-1.3c0-0.4-0.2-0.8-0.5-1.1c-0.4-0.3-1.1-0.7-2.1-1.1s-1.7-0.7-2.1-1c-0.4-0.3-0.7-0.6-0.9-1
		s-0.3-0.8-0.3-1.3c0-0.9,0.4-1.6,1.1-2.1s1.7-0.8,2.9-0.8s2.3,0.2,3.4,0.7l-0.6,1.4c-1.1-0.5-2.1-0.7-2.9-0.7s-1.4,0.1-1.8,0.4
		c-0.4,0.2-0.6,0.6-0.6,1c0,0.3,0.1,0.6,0.2,0.8c0.2,0.2,0.4,0.4,0.7,0.6s1,0.5,1.9,0.8c1.3,0.5,2.1,0.9,2.6,1.4s0.7,1.1,0.7,1.8
		C140.9,1038.2,140.6,1038.9,139.8,1039.6z M151.5,1040.2h-1.2l-0.3-1.6h-0.1c-0.5,0.7-1.1,1.1-1.6,1.4c-0.5,0.2-1.2,0.4-2,0.4
		c-1.1,0-1.9-0.3-2.5-0.8c-0.6-0.6-0.9-1.3-0.9-2.4c0-2.2,1.8-3.4,5.2-3.5l1.8-0.1v-0.7c0-0.9-0.2-1.5-0.6-1.9
		c-0.4-0.4-0.9-0.6-1.8-0.6c-0.9,0-1.9,0.3-3,0.8l-0.5-1.3c0.5-0.3,1.1-0.5,1.8-0.7c0.6-0.2,1.3-0.3,1.9-0.3c1.3,0,2.2,0.3,2.9,0.9
		c0.6,0.6,0.9,1.5,0.9,2.8L151.5,1040.2L151.5,1040.2z M163.7,1040.2h-1.3l-0.2-1.5h-0.1c-0.8,1.1-1.9,1.7-3.4,1.7
		c-1.4,0-2.5-0.5-3.3-1.5s-1.2-2.4-1.2-4.2c0-1.8,0.4-3.2,1.2-4.2s1.9-1.5,3.3-1.5c1.5,0,2.6,0.5,3.4,1.6h0.1l-0.1-0.8v-5.2h1.6
		V1040.2z"/>
	<path class="st5" d="M41.2,1029.5c0,1-0.3,1.8-1,2.3c-0.4,0.3-1,0.5-1.8,0.6c-0.4,0-0.9,0.1-1.3,0.1h-1.5v-5.9h1.9
		c0.5,0,1,0,1.4,0.1c0.6,0.1,1.2,0.3,1.5,0.6C40.9,1027.8,41.2,1028.5,41.2,1029.5z"/>
	<path class="st5" d="M60.6,1033.3h-5.5c0.1-1,0.4-1.8,0.9-2.4c0.5-0.5,1.1-0.8,1.8-0.9c0,0,0.1,0,0.2,0h0.6
		c0.1,0.1,0.2,0.1,0.3,0.1c0.2,0.1,0.4,0.2,0.6,0.3c0.1,0,0.1,0.1,0.2,0.1c0.1,0.1,0.3,0.3,0.3,0.4c0.2,0.2,0.4,0.6,0.5,1
		C60.6,1032.3,60.7,1032.8,60.6,1033.3z"/>
	<path class="st5" d="M162,1033.7v-0.4c0-0.2-0.1-0.4-0.1-0.6l0,0c-0.1-0.6-0.4-1-0.6-1.3c-0.5-0.7-1.3-1-2.4-1
		c-1,0-1.7,0.4-2.2,1.1c-0.5,0.8-0.8,1.8-0.8,3.2c0,1.4,0.3,2.5,0.8,3.2s1.3,1.1,2.2,1.1c1.1,0,1.9-0.3,2.4-0.9s0.8-1.6,0.8-3v-0.4
		C162.1,1034.3,162.1,1034,162,1033.7z M148.2,1034.8c-0.9,0-1.6,0.2-2.1,0.3c-0.1,0-0.1,0-0.2,0.1c0,0,0,0-0.1,0
		c-0.1,0.1-0.3,0.1-0.4,0.2c-0.6,0.4-0.9,0.9-0.9,1.7c0,0.6,0.2,1,0.5,1.4c0.4,0.3,0.9,0.5,1.5,0.5c1,0,1.8-0.3,2.4-0.8
		c0.6-0.6,0.9-1.3,0.9-2.4v-1L148.2,1034.8L148.2,1034.8z M127.3,1034.8c-1.1,0-2,0.2-2.6,0.5c-0.1,0-0.2,0.1-0.2,0.1
		c-0.6,0.4-0.9,0.9-0.9,1.7c0,0.6,0.2,1,0.5,1.4s0.9,0.5,1.5,0.5c1,0,1.8-0.3,2.4-0.8c0.6-0.6,0.9-1.3,0.9-2.4v-1L127.3,1034.8
		L127.3,1034.8z M109.1,1027.7c-0.6-0.5-1.6-0.7-2.9-0.7h-1.9v5.9h1.5c1.5,0,2.6-0.2,3.2-0.7c0.7-0.5,1-1.3,1-2.3
		S109.7,1028.2,109.1,1027.7z M90.5,1034.8c-0.9,0-1.6,0.2-2.1,0.3c-0.1,0-0.1,0-0.2,0.1c0,0,0,0-0.1,0c-0.1,0.1-0.3,0.1-0.4,0.2
		c-0.6,0.4-0.9,0.9-0.9,1.7c0,0.6,0.2,1,0.5,1.4c0.4,0.3,0.9,0.5,1.5,0.5c1,0,1.8-0.3,2.4-0.8c0.6-0.6,0.9-1.3,0.9-2.4v-1
		L90.5,1034.8L90.5,1034.8z M60.7,1033.7c0-0.5,0-1-0.2-1.4C60.6,1032.7,60.7,1033.2,60.7,1033.7L60.7,1033.7z M59.7,1030.9
		c0.1,0.1,0.3,0.3,0.3,0.4c0.2,0.2,0.4,0.6,0.5,1c-0.1-0.5-0.3-0.8-0.5-1.1C59.9,1031.1,59.8,1031,59.7,1030.9z M55,1033.7
		L55,1033.7c0.2-1,0.5-1.8,1-2.4c0.5-0.5,1.1-0.8,1.8-0.9c-0.8,0-1.4,0.3-1.9,0.9S55.1,1032.7,55,1033.7z M162,1033.7v-0.4
		c0-0.2-0.1-0.4-0.1-0.6l0,0c-0.1-0.6-0.4-1-0.6-1.3c-0.5-0.7-1.3-1-2.4-1c-1,0-1.7,0.4-2.2,1.1c-0.5,0.8-0.8,1.8-0.8,3.2
		c0,1.4,0.3,2.5,0.8,3.2s1.3,1.1,2.2,1.1c1.1,0,1.9-0.3,2.4-0.9s0.8-1.6,0.8-3v-0.4C162.1,1034.3,162.1,1034,162,1033.7z
		 M148.2,1034.8c-0.9,0-1.6,0.2-2.1,0.3c-0.1,0-0.1,0-0.2,0.1c0,0,0,0-0.1,0c-0.1,0.1-0.3,0.1-0.4,0.2c-0.6,0.4-0.9,0.9-0.9,1.7
		c0,0.6,0.2,1,0.5,1.4c0.4,0.3,0.9,0.5,1.5,0.5c1,0,1.8-0.3,2.4-0.8c0.6-0.6,0.9-1.3,0.9-2.4v-1L148.2,1034.8L148.2,1034.8z
		 M127.3,1034.8c-1.1,0-2,0.2-2.6,0.5c-0.1,0-0.2,0.1-0.2,0.1c-0.6,0.4-0.9,0.9-0.9,1.7c0,0.6,0.2,1,0.5,1.4s0.9,0.5,1.5,0.5
		c1,0,1.8-0.3,2.4-0.8c0.6-0.6,0.9-1.3,0.9-2.4v-1L127.3,1034.8L127.3,1034.8z M109.1,1027.7c-0.6-0.5-1.6-0.7-2.9-0.7h-1.9v5.9h1.5
		c1.5,0,2.6-0.2,3.2-0.7c0.7-0.5,1-1.3,1-2.3S109.7,1028.2,109.1,1027.7z M90.5,1034.8c-0.9,0-1.6,0.2-2.1,0.3c-0.1,0-0.1,0-0.2,0.1
		c0,0,0,0-0.1,0c-0.1,0.1-0.3,0.1-0.4,0.2c-0.6,0.4-0.9,0.9-0.9,1.7c0,0.6,0.2,1,0.5,1.4c0.4,0.3,0.9,0.5,1.5,0.5
		c1,0,1.8-0.3,2.4-0.8c0.6-0.6,0.9-1.3,0.9-2.4v-1L90.5,1034.8L90.5,1034.8z M60.7,1033.7c0-0.5,0-1-0.2-1.4
		C60.6,1032.7,60.7,1033.2,60.7,1033.7L60.7,1033.7z M59.7,1030.9c0.1,0.1,0.3,0.3,0.3,0.4c0.2,0.2,0.4,0.6,0.5,1
		c-0.1-0.5-0.3-0.8-0.5-1.1C59.9,1031.1,59.8,1031,59.7,1030.9z M55,1033.7L55,1033.7c0.2-1,0.5-1.8,1-2.4c0.5-0.5,1.1-0.8,1.8-0.9
		c-0.8,0-1.4,0.3-1.9,0.9S55.1,1032.7,55,1033.7z M162,1033.7v-0.4c0-0.2-0.1-0.4-0.1-0.6l0,0c-0.1-0.6-0.4-1-0.6-1.3
		c-0.5-0.7-1.3-1-2.4-1c-1,0-1.7,0.4-2.2,1.1c-0.5,0.8-0.8,1.8-0.8,3.2c0,1.4,0.3,2.5,0.8,3.2s1.3,1.1,2.2,1.1
		c1.1,0,1.9-0.3,2.4-0.9s0.8-1.6,0.8-3v-0.4C162.1,1034.3,162.1,1034,162,1033.7z M162,1033.7v-0.4c0-0.2-0.1-0.4-0.1-0.6l0,0
		c-0.1-0.6-0.4-1-0.6-1.3c-0.5-0.7-1.3-1-2.4-1c-1,0-1.7,0.4-2.2,1.1c-0.5,0.8-0.8,1.8-0.8,3.2c0,1.4,0.3,2.5,0.8,3.2
		s1.3,1.1,2.2,1.1c1.1,0,1.9-0.3,2.4-0.9s0.8-1.6,0.8-3v-0.4C162.1,1034.3,162.1,1034,162,1033.7z M162,1033.7v-0.4
		c0-0.2-0.1-0.4-0.1-0.6l0,0c-0.1-0.6-0.4-1-0.6-1.3c-0.5-0.7-1.3-1-2.4-1c-1,0-1.7,0.4-2.2,1.1c-0.5,0.8-0.8,1.8-0.8,3.2
		c0,1.4,0.3,2.5,0.8,3.2s1.3,1.1,2.2,1.1c1.1,0,1.9-0.3,2.4-0.9s0.8-1.6,0.8-3v-0.4C162.1,1034.3,162.1,1034,162,1033.7z
		 M162,1033.7v-0.4c0-0.2-0.1-0.4-0.1-0.6l0,0c-0.1-0.6-0.4-1-0.6-1.3c-0.5-0.7-1.3-1-2.4-1c-1,0-1.7,0.4-2.2,1.1
		c-0.5,0.8-0.8,1.8-0.8,3.2c0,1.4,0.3,2.5,0.8,3.2s1.3,1.1,2.2,1.1c1.1,0,1.9-0.3,2.4-0.9s0.8-1.6,0.8-3v-0.4
		C162.1,1034.3,162.1,1034,162,1033.7z M148.2,1034.8c-0.9,0-1.6,0.2-2.1,0.3c-0.1,0-0.1,0-0.2,0.1c0,0,0,0-0.1,0
		c-0.1,0.1-0.3,0.1-0.4,0.2c-0.6,0.4-0.9,0.9-0.9,1.7c0,0.6,0.2,1,0.5,1.4c0.4,0.3,0.9,0.5,1.5,0.5c1,0,1.8-0.3,2.4-0.8
		c0.6-0.6,0.9-1.3,0.9-2.4v-1L148.2,1034.8L148.2,1034.8z M162,1033.7v-0.4c0-0.2-0.1-0.4-0.1-0.6l0,0c-0.1-0.6-0.4-1-0.6-1.3
		c-0.5-0.7-1.3-1-2.4-1c-1,0-1.7,0.4-2.2,1.1c-0.5,0.8-0.8,1.8-0.8,3.2c0,1.4,0.3,2.5,0.8,3.2s1.3,1.1,2.2,1.1
		c1.1,0,1.9-0.3,2.4-0.9s0.8-1.6,0.8-3v-0.4C162.1,1034.3,162.1,1034,162,1033.7z M162,1033.7v-0.4c0-0.2-0.1-0.4-0.1-0.6l0,0
		c-0.1-0.6-0.4-1-0.6-1.3c-0.5-0.7-1.3-1-2.4-1c-1,0-1.7,0.4-2.2,1.1c-0.5,0.8-0.8,1.8-0.8,3.2c0,1.4,0.3,2.5,0.8,3.2
		s1.3,1.1,2.2,1.1c1.1,0,1.9-0.3,2.4-0.9s0.8-1.6,0.8-3v-0.4C162.1,1034.3,162.1,1034,162,1033.7z M148.2,1034.8
		c-0.9,0-1.6,0.2-2.1,0.3c-0.1,0-0.1,0-0.2,0.1c0,0,0,0-0.1,0c-0.1,0.1-0.3,0.1-0.4,0.2c-0.6,0.4-0.9,0.9-0.9,1.7
		c0,0.6,0.2,1,0.5,1.4c0.4,0.3,0.9,0.5,1.5,0.5c1,0,1.8-0.3,2.4-0.8c0.6-0.6,0.9-1.3,0.9-2.4v-1L148.2,1034.8L148.2,1034.8z
		 M127.3,1034.8c-1.1,0-2,0.2-2.6,0.5c-0.1,0-0.2,0.1-0.2,0.1c-0.6,0.4-0.9,0.9-0.9,1.7c0,0.6,0.2,1,0.5,1.4s0.9,0.5,1.5,0.5
		c1,0,1.8-0.3,2.4-0.8c0.6-0.6,0.9-1.3,0.9-2.4v-1L127.3,1034.8L127.3,1034.8z M148.2,1034.8c-0.9,0-1.6,0.2-2.1,0.3
		c-0.1,0-0.1,0-0.2,0.1c0,0,0,0-0.1,0c-0.1,0.1-0.3,0.1-0.4,0.2c-0.6,0.4-0.9,0.9-0.9,1.7c0,0.6,0.2,1,0.5,1.4
		c0.4,0.3,0.9,0.5,1.5,0.5c1,0,1.8-0.3,2.4-0.8c0.6-0.6,0.9-1.3,0.9-2.4v-1L148.2,1034.8L148.2,1034.8z M162,1033.7v-0.4
		c0-0.2-0.1-0.4-0.1-0.6l0,0c-0.1-0.6-0.4-1-0.6-1.3c-0.5-0.7-1.3-1-2.4-1c-1,0-1.7,0.4-2.2,1.1c-0.5,0.8-0.8,1.8-0.8,3.2
		c0,1.4,0.3,2.5,0.8,3.2s1.3,1.1,2.2,1.1c1.1,0,1.9-0.3,2.4-0.9s0.8-1.6,0.8-3v-0.4C162.1,1034.3,162.1,1034,162,1033.7z
		 M162,1033.7v-0.4c0-0.2-0.1-0.4-0.1-0.6l0,0c-0.1-0.6-0.4-1-0.6-1.3c-0.5-0.7-1.3-1-2.4-1c-1,0-1.7,0.4-2.2,1.1
		c-0.5,0.8-0.8,1.8-0.8,3.2c0,1.4,0.3,2.5,0.8,3.2s1.3,1.1,2.2,1.1c1.1,0,1.9-0.3,2.4-0.9s0.8-1.6,0.8-3v-0.4
		C162.1,1034.3,162.1,1034,162,1033.7z M148.2,1034.8c-0.9,0-1.6,0.2-2.1,0.3c-0.1,0-0.1,0-0.2,0.1c0,0,0,0-0.1,0
		c-0.1,0.1-0.3,0.1-0.4,0.2c-0.6,0.4-0.9,0.9-0.9,1.7c0,0.6,0.2,1,0.5,1.4c0.4,0.3,0.9,0.5,1.5,0.5c1,0,1.8-0.3,2.4-0.8
		c0.6-0.6,0.9-1.3,0.9-2.4v-1L148.2,1034.8L148.2,1034.8z M127.3,1034.8c-1.1,0-2,0.2-2.6,0.5c-0.1,0-0.2,0.1-0.2,0.1
		c-0.6,0.4-0.9,0.9-0.9,1.7c0,0.6,0.2,1,0.5,1.4s0.9,0.5,1.5,0.5c1,0,1.8-0.3,2.4-0.8c0.6-0.6,0.9-1.3,0.9-2.4v-1L127.3,1034.8
		L127.3,1034.8z M109.1,1027.7c-0.6-0.5-1.6-0.7-2.9-0.7h-1.9v5.9h1.5c1.5,0,2.6-0.2,3.2-0.7c0.7-0.5,1-1.3,1-2.3
		S109.7,1028.2,109.1,1027.7z M127.3,1034.8c-1.1,0-2,0.2-2.6,0.5c-0.1,0-0.2,0.1-0.2,0.1c-0.6,0.4-0.9,0.9-0.9,1.7
		c0,0.6,0.2,1,0.5,1.4s0.9,0.5,1.5,0.5c1,0,1.8-0.3,2.4-0.8c0.6-0.6,0.9-1.3,0.9-2.4v-1L127.3,1034.8L127.3,1034.8z M148.2,1034.8
		c-0.9,0-1.6,0.2-2.1,0.3c-0.1,0-0.1,0-0.2,0.1c0,0,0,0-0.1,0c-0.1,0.1-0.3,0.1-0.4,0.2c-0.6,0.4-0.9,0.9-0.9,1.7
		c0,0.6,0.2,1,0.5,1.4c0.4,0.3,0.9,0.5,1.5,0.5c1,0,1.8-0.3,2.4-0.8c0.6-0.6,0.9-1.3,0.9-2.4v-1L148.2,1034.8L148.2,1034.8z
		 M162,1033.7v-0.4c0-0.2-0.1-0.4-0.1-0.6l0,0c-0.1-0.6-0.4-1-0.6-1.3c-0.5-0.7-1.3-1-2.4-1c-1,0-1.7,0.4-2.2,1.1
		c-0.5,0.8-0.8,1.8-0.8,3.2c0,1.4,0.3,2.5,0.8,3.2s1.3,1.1,2.2,1.1c1.1,0,1.9-0.3,2.4-0.9s0.8-1.6,0.8-3v-0.4
		C162.1,1034.3,162.1,1034,162,1033.7z M162,1033.7v-0.4c0-0.2-0.1-0.4-0.1-0.6l0,0c-0.1-0.6-0.4-1-0.6-1.3c-0.5-0.7-1.3-1-2.4-1
		c-1,0-1.7,0.4-2.2,1.1c-0.5,0.8-0.8,1.8-0.8,3.2c0,1.4,0.3,2.5,0.8,3.2s1.3,1.1,2.2,1.1c1.1,0,1.9-0.3,2.4-0.9s0.8-1.6,0.8-3v-0.4
		C162.1,1034.3,162.1,1034,162,1033.7z M148.2,1034.8c-0.9,0-1.6,0.2-2.1,0.3c-0.1,0-0.1,0-0.2,0.1c0,0,0,0-0.1,0
		c-0.1,0.1-0.3,0.1-0.4,0.2c-0.6,0.4-0.9,0.9-0.9,1.7c0,0.6,0.2,1,0.5,1.4c0.4,0.3,0.9,0.5,1.5,0.5c1,0,1.8-0.3,2.4-0.8
		c0.6-0.6,0.9-1.3,0.9-2.4v-1L148.2,1034.8L148.2,1034.8z M127.3,1034.8c-1.1,0-2,0.2-2.6,0.5c-0.1,0-0.2,0.1-0.2,0.1
		c-0.6,0.4-0.9,0.9-0.9,1.7c0,0.6,0.2,1,0.5,1.4s0.9,0.5,1.5,0.5c1,0,1.8-0.3,2.4-0.8c0.6-0.6,0.9-1.3,0.9-2.4v-1L127.3,1034.8
		L127.3,1034.8z M109.1,1027.7c-0.6-0.5-1.6-0.7-2.9-0.7h-1.9v5.9h1.5c1.5,0,2.6-0.2,3.2-0.7c0.7-0.5,1-1.3,1-2.3
		S109.7,1028.2,109.1,1027.7z M90.5,1034.8c-0.9,0-1.6,0.2-2.1,0.3c-0.1,0-0.1,0-0.2,0.1c0,0,0,0-0.1,0c-0.1,0.1-0.3,0.1-0.4,0.2
		c-0.6,0.4-0.9,0.9-0.9,1.7c0,0.6,0.2,1,0.5,1.4c0.4,0.3,0.9,0.5,1.5,0.5c1,0,1.8-0.3,2.4-0.8c0.6-0.6,0.9-1.3,0.9-2.4v-1
		L90.5,1034.8L90.5,1034.8z M109.1,1027.7c-0.6-0.5-1.6-0.7-2.9-0.7h-1.9v5.9h1.5c1.5,0,2.6-0.2,3.2-0.7c0.7-0.5,1-1.3,1-2.3
		S109.7,1028.2,109.1,1027.7z M127.3,1034.8c-1.1,0-2,0.2-2.6,0.5c-0.1,0-0.2,0.1-0.2,0.1c-0.6,0.4-0.9,0.9-0.9,1.7
		c0,0.6,0.2,1,0.5,1.4s0.9,0.5,1.5,0.5c1,0,1.8-0.3,2.4-0.8c0.6-0.6,0.9-1.3,0.9-2.4v-1L127.3,1034.8L127.3,1034.8z M148.2,1034.8
		c-0.9,0-1.6,0.2-2.1,0.3c-0.1,0-0.1,0-0.2,0.1c0,0,0,0-0.1,0c-0.1,0.1-0.3,0.1-0.4,0.2c-0.6,0.4-0.9,0.9-0.9,1.7
		c0,0.6,0.2,1,0.5,1.4c0.4,0.3,0.9,0.5,1.5,0.5c1,0,1.8-0.3,2.4-0.8c0.6-0.6,0.9-1.3,0.9-2.4v-1L148.2,1034.8L148.2,1034.8z
		 M162,1033.7v-0.4c0-0.2-0.1-0.4-0.1-0.6l0,0c-0.1-0.6-0.4-1-0.6-1.3c-0.5-0.7-1.3-1-2.4-1c-1,0-1.7,0.4-2.2,1.1
		c-0.5,0.8-0.8,1.8-0.8,3.2c0,1.4,0.3,2.5,0.8,3.2s1.3,1.1,2.2,1.1c1.1,0,1.9-0.3,2.4-0.9s0.8-1.6,0.8-3v-0.4
		C162.1,1034.3,162.1,1034,162,1033.7z M162,1033.7v-0.4c0-0.2-0.1-0.4-0.1-0.6l0,0c-0.1-0.6-0.4-1-0.6-1.3c-0.5-0.7-1.3-1-2.4-1
		c-1,0-1.7,0.4-2.2,1.1c-0.5,0.8-0.8,1.8-0.8,3.2c0,1.4,0.3,2.5,0.8,3.2s1.3,1.1,2.2,1.1c1.1,0,1.9-0.3,2.4-0.9s0.8-1.6,0.8-3v-0.4
		C162.1,1034.3,162.1,1034,162,1033.7z M148.2,1034.8c-0.9,0-1.6,0.2-2.1,0.3c-0.1,0-0.1,0-0.2,0.1c0,0,0,0-0.1,0
		c-0.1,0.1-0.3,0.1-0.4,0.2c-0.6,0.4-0.9,0.9-0.9,1.7c0,0.6,0.2,1,0.5,1.4c0.4,0.3,0.9,0.5,1.5,0.5c1,0,1.8-0.3,2.4-0.8
		c0.6-0.6,0.9-1.3,0.9-2.4v-1L148.2,1034.8L148.2,1034.8z M127.3,1034.8c-1.1,0-2,0.2-2.6,0.5c-0.1,0-0.2,0.1-0.2,0.1
		c-0.6,0.4-0.9,0.9-0.9,1.7c0,0.6,0.2,1,0.5,1.4s0.9,0.5,1.5,0.5c1,0,1.8-0.3,2.4-0.8c0.6-0.6,0.9-1.3,0.9-2.4v-1L127.3,1034.8
		L127.3,1034.8z M109.1,1027.7c-0.6-0.5-1.6-0.7-2.9-0.7h-1.9v5.9h1.5c1.5,0,2.6-0.2,3.2-0.7c0.7-0.5,1-1.3,1-2.3
		S109.7,1028.2,109.1,1027.7z M90.5,1034.8c-0.9,0-1.6,0.2-2.1,0.3c-0.1,0-0.1,0-0.2,0.1c0,0,0,0-0.1,0c-0.1,0.1-0.3,0.1-0.4,0.2
		c-0.6,0.4-0.9,0.9-0.9,1.7c0,0.6,0.2,1,0.5,1.4c0.4,0.3,0.9,0.5,1.5,0.5c1,0,1.8-0.3,2.4-0.8c0.6-0.6,0.9-1.3,0.9-2.4v-1
		L90.5,1034.8L90.5,1034.8z M60,1031.2c-0.1-0.1-0.2-0.2-0.3-0.3C59.8,1031,60,1031.2,60,1031.2c0.2,0.3,0.4,0.7,0.5,1.1
		C60.4,1031.8,60.2,1031.5,60,1031.2z M55,1033.7L55,1033.7c0.2-1,0.5-1.8,1-2.4c0.5-0.5,1.1-0.8,1.8-0.9c-0.8,0-1.4,0.3-1.9,0.9
		S55.1,1032.7,55,1033.7z M90.5,1034.8c-0.9,0-1.6,0.2-2.1,0.3c-0.1,0-0.1,0-0.2,0.1c0,0,0,0-0.1,0c-0.1,0.1-0.3,0.1-0.4,0.2
		c-0.6,0.4-0.9,0.9-0.9,1.7c0,0.6,0.2,1,0.5,1.4c0.4,0.3,0.9,0.5,1.5,0.5c1,0,1.8-0.3,2.4-0.8c0.6-0.6,0.9-1.3,0.9-2.4v-1
		L90.5,1034.8L90.5,1034.8z M109.1,1027.7c-0.6-0.5-1.6-0.7-2.9-0.7h-1.9v5.9h1.5c1.5,0,2.6-0.2,3.2-0.7c0.7-0.5,1-1.3,1-2.3
		S109.7,1028.2,109.1,1027.7z M127.3,1034.8c-1.1,0-2,0.2-2.6,0.5c-0.1,0-0.2,0.1-0.2,0.1c-0.6,0.4-0.9,0.9-0.9,1.7
		c0,0.6,0.2,1,0.5,1.4s0.9,0.5,1.5,0.5c1,0,1.8-0.3,2.4-0.8c0.6-0.6,0.9-1.3,0.9-2.4v-1L127.3,1034.8L127.3,1034.8z M148.2,1034.8
		c-0.9,0-1.6,0.2-2.1,0.3c-0.1,0-0.1,0-0.2,0.1c0,0,0,0-0.1,0c-0.1,0.1-0.3,0.1-0.4,0.2c-0.6,0.4-0.9,0.9-0.9,1.7
		c0,0.6,0.2,1,0.5,1.4c0.4,0.3,0.9,0.5,1.5,0.5c1,0,1.8-0.3,2.4-0.8c0.6-0.6,0.9-1.3,0.9-2.4v-1L148.2,1034.8L148.2,1034.8z
		 M162,1033.7v-0.4c0-0.2-0.1-0.4-0.1-0.6l0,0c-0.1-0.6-0.4-1-0.6-1.3c-0.5-0.7-1.3-1-2.4-1c-1,0-1.7,0.4-2.2,1.1
		c-0.5,0.8-0.8,1.8-0.8,3.2c0,1.4,0.3,2.5,0.8,3.2s1.3,1.1,2.2,1.1c1.1,0,1.9-0.3,2.4-0.9s0.8-1.6,0.8-3v-0.4
		C162.1,1034.3,162.1,1034,162,1033.7z M162,1033.7v-0.4c0-0.2-0.1-0.4-0.1-0.6l0,0c-0.1-0.6-0.4-1-0.6-1.3c-0.5-0.7-1.3-1-2.4-1
		c-1,0-1.7,0.4-2.2,1.1c-0.5,0.8-0.8,1.8-0.8,3.2c0,1.4,0.3,2.5,0.8,3.2s1.3,1.1,2.2,1.1c1.1,0,1.9-0.3,2.4-0.9s0.8-1.6,0.8-3v-0.4
		C162.1,1034.3,162.1,1034,162,1033.7z M148.2,1034.8c-0.9,0-1.6,0.2-2.1,0.3c-0.1,0-0.1,0-0.2,0.1c0,0,0,0-0.1,0
		c-0.1,0.1-0.3,0.1-0.4,0.2c-0.6,0.4-0.9,0.9-0.9,1.7c0,0.6,0.2,1,0.5,1.4c0.4,0.3,0.9,0.5,1.5,0.5c1,0,1.8-0.3,2.4-0.8
		c0.6-0.6,0.9-1.3,0.9-2.4v-1L148.2,1034.8L148.2,1034.8z M127.3,1034.8c-1.1,0-2,0.2-2.6,0.5c-0.1,0-0.2,0.1-0.2,0.1
		c-0.6,0.4-0.9,0.9-0.9,1.7c0,0.6,0.2,1,0.5,1.4s0.9,0.5,1.5,0.5c1,0,1.8-0.3,2.4-0.8c0.6-0.6,0.9-1.3,0.9-2.4v-1L127.3,1034.8
		L127.3,1034.8z M109.1,1027.7c-0.6-0.5-1.6-0.7-2.9-0.7h-1.9v5.9h1.5c1.5,0,2.6-0.2,3.2-0.7c0.7-0.5,1-1.3,1-2.3
		S109.7,1028.2,109.1,1027.7z M90.5,1034.8c-0.9,0-1.6,0.2-2.1,0.3c-0.1,0-0.1,0-0.2,0.1c0,0,0,0-0.1,0c-0.1,0.1-0.3,0.1-0.4,0.2
		c-0.6,0.4-0.9,0.9-0.9,1.7c0,0.6,0.2,1,0.5,1.4c0.4,0.3,0.9,0.5,1.5,0.5c1,0,1.8-0.3,2.4-0.8c0.6-0.6,0.9-1.3,0.9-2.4v-1
		L90.5,1034.8L90.5,1034.8z M60,1031.2c-0.1-0.1-0.2-0.2-0.3-0.3C59.8,1031,60,1031.2,60,1031.2c0.2,0.3,0.4,0.7,0.5,1.1
		C60.4,1031.8,60.2,1031.5,60,1031.2z M55,1033.7L55,1033.7c0.2-1,0.5-1.8,1-2.4c0.5-0.5,1.1-0.8,1.8-0.9c-0.8,0-1.4,0.3-1.9,0.9
		S55.1,1032.7,55,1033.7z M60,1031.2c-0.1-0.1-0.2-0.2-0.3-0.3C59.8,1031,60,1031.2,60,1031.2c0.2,0.3,0.4,0.7,0.5,1.1
		C60.4,1031.8,60.2,1031.5,60,1031.2z M55,1033.7L55,1033.7c0.2-1,0.5-1.8,1-2.4c0.5-0.5,1.1-0.8,1.8-0.9c-0.8,0-1.4,0.3-1.9,0.9
		S55.1,1032.7,55,1033.7z M90.5,1034.8c-0.9,0-1.6,0.2-2.1,0.3c-0.1,0-0.1,0-0.2,0.1c0,0,0,0-0.1,0c-0.1,0.1-0.3,0.1-0.4,0.2
		c-0.6,0.4-0.9,0.9-0.9,1.7c0,0.6,0.2,1,0.5,1.4c0.4,0.3,0.9,0.5,1.5,0.5c1,0,1.8-0.3,2.4-0.8c0.6-0.6,0.9-1.3,0.9-2.4v-1
		L90.5,1034.8L90.5,1034.8z M109.1,1027.7c-0.6-0.5-1.6-0.7-2.9-0.7h-1.9v5.9h1.5c1.5,0,2.6-0.2,3.2-0.7c0.7-0.5,1-1.3,1-2.3
		S109.7,1028.2,109.1,1027.7z M127.3,1034.8c-1.1,0-2,0.2-2.6,0.5c-0.1,0-0.2,0.1-0.2,0.1c-0.6,0.4-0.9,0.9-0.9,1.7
		c0,0.6,0.2,1,0.5,1.4s0.9,0.5,1.5,0.5c1,0,1.8-0.3,2.4-0.8c0.6-0.6,0.9-1.3,0.9-2.4v-1L127.3,1034.8L127.3,1034.8z M148.2,1034.8
		c-0.9,0-1.6,0.2-2.1,0.3c-0.1,0-0.1,0-0.2,0.1c0,0,0,0-0.1,0c-0.1,0.1-0.3,0.1-0.4,0.2c-0.6,0.4-0.9,0.9-0.9,1.7
		c0,0.6,0.2,1,0.5,1.4c0.4,0.3,0.9,0.5,1.5,0.5c1,0,1.8-0.3,2.4-0.8c0.6-0.6,0.9-1.3,0.9-2.4v-1L148.2,1034.8L148.2,1034.8z
		 M162,1033.7v-0.4c0-0.2-0.1-0.4-0.1-0.6l0,0c-0.1-0.6-0.4-1-0.6-1.3c-0.5-0.7-1.3-1-2.4-1c-1,0-1.7,0.4-2.2,1.1
		c-0.5,0.8-0.8,1.8-0.8,3.2c0,1.4,0.3,2.5,0.8,3.2s1.3,1.1,2.2,1.1c1.1,0,1.9-0.3,2.4-0.9s0.8-1.6,0.8-3v-0.4
		C162.1,1034.3,162.1,1034,162,1033.7z M162,1033.7v-0.4c0-0.2-0.1-0.4-0.1-0.6l0,0c-0.1-0.6-0.4-1-0.6-1.3c-0.5-0.7-1.3-1-2.4-1
		c-1,0-1.7,0.4-2.2,1.1c-0.5,0.8-0.8,1.8-0.8,3.2c0,1.4,0.3,2.5,0.8,3.2s1.3,1.1,2.2,1.1c1.1,0,1.9-0.3,2.4-0.9s0.8-1.6,0.8-3v-0.4
		C162.1,1034.3,162.1,1034,162,1033.7z M148.2,1034.8c-0.9,0-1.6,0.2-2.1,0.3c-0.1,0-0.1,0-0.2,0.1c0,0,0,0-0.1,0
		c-0.1,0.1-0.3,0.1-0.4,0.2c-0.6,0.4-0.9,0.9-0.9,1.7c0,0.6,0.2,1,0.5,1.4c0.4,0.3,0.9,0.5,1.5,0.5c1,0,1.8-0.3,2.4-0.8
		c0.6-0.6,0.9-1.3,0.9-2.4v-1L148.2,1034.8L148.2,1034.8z M127.3,1034.8c-1.1,0-2,0.2-2.6,0.5c-0.1,0-0.2,0.1-0.2,0.1
		c-0.6,0.4-0.9,0.9-0.9,1.7c0,0.6,0.2,1,0.5,1.4s0.9,0.5,1.5,0.5c1,0,1.8-0.3,2.4-0.8c0.6-0.6,0.9-1.3,0.9-2.4v-1L127.3,1034.8
		L127.3,1034.8z M109.1,1027.7c-0.6-0.5-1.6-0.7-2.9-0.7h-1.9v5.9h1.5c1.5,0,2.6-0.2,3.2-0.7c0.7-0.5,1-1.3,1-2.3
		S109.7,1028.2,109.1,1027.7z M90.5,1034.8c-0.9,0-1.6,0.2-2.1,0.3c-0.1,0-0.1,0-0.2,0.1c0,0,0,0-0.1,0c-0.1,0.1-0.3,0.1-0.4,0.2
		c-0.6,0.4-0.9,0.9-0.9,1.7c0,0.6,0.2,1,0.5,1.4c0.4,0.3,0.9,0.5,1.5,0.5c1,0,1.8-0.3,2.4-0.8c0.6-0.6,0.9-1.3,0.9-2.4v-1
		L90.5,1034.8L90.5,1034.8z M60,1031.2c-0.1-0.1-0.2-0.2-0.3-0.3C59.8,1031,60,1031.2,60,1031.2c0.2,0.3,0.4,0.7,0.5,1.1
		C60.4,1031.8,60.2,1031.5,60,1031.2z M55,1033.7L55,1033.7c0.2-1,0.5-1.8,1-2.4c0.5-0.5,1.1-0.8,1.8-0.9c-0.8,0-1.4,0.3-1.9,0.9
		S55.1,1032.7,55,1033.7z M60,1031.2c-0.1-0.1-0.2-0.2-0.3-0.3C59.8,1031,60,1031.2,60,1031.2c0.2,0.3,0.4,0.7,0.5,1.1
		C60.4,1031.8,60.2,1031.5,60,1031.2z M55,1033.7L55,1033.7c0.2-1,0.5-1.8,1-2.4c0.5-0.5,1.1-0.8,1.8-0.9c-0.8,0-1.4,0.3-1.9,0.9
		S55.1,1032.7,55,1033.7z M90.5,1034.8c-0.9,0-1.6,0.2-2.1,0.3c-0.1,0-0.1,0-0.2,0.1c0,0,0,0-0.1,0c-0.1,0.1-0.3,0.1-0.4,0.2
		c-0.6,0.4-0.9,0.9-0.9,1.7c0,0.6,0.2,1,0.5,1.4c0.4,0.3,0.9,0.5,1.5,0.5c1,0,1.8-0.3,2.4-0.8c0.6-0.6,0.9-1.3,0.9-2.4v-1
		L90.5,1034.8L90.5,1034.8z M109.1,1027.7c-0.6-0.5-1.6-0.7-2.9-0.7h-1.9v5.9h1.5c1.5,0,2.6-0.2,3.2-0.7c0.7-0.5,1-1.3,1-2.3
		S109.7,1028.2,109.1,1027.7z M127.3,1034.8c-1.1,0-2,0.2-2.6,0.5c-0.1,0-0.2,0.1-0.2,0.1c-0.6,0.4-0.9,0.9-0.9,1.7
		c0,0.6,0.2,1,0.5,1.4s0.9,0.5,1.5,0.5c1,0,1.8-0.3,2.4-0.8c0.6-0.6,0.9-1.3,0.9-2.4v-1L127.3,1034.8L127.3,1034.8z M148.2,1034.8
		c-0.9,0-1.6,0.2-2.1,0.3c-0.1,0-0.1,0-0.2,0.1c0,0,0,0-0.1,0c-0.1,0.1-0.3,0.1-0.4,0.2c-0.6,0.4-0.9,0.9-0.9,1.7
		c0,0.6,0.2,1,0.5,1.4c0.4,0.3,0.9,0.5,1.5,0.5c1,0,1.8-0.3,2.4-0.8c0.6-0.6,0.9-1.3,0.9-2.4v-1L148.2,1034.8L148.2,1034.8z
		 M162,1033.7v-0.4c0-0.2-0.1-0.4-0.1-0.6l0,0c-0.1-0.6-0.4-1-0.6-1.3c-0.5-0.7-1.3-1-2.4-1c-1,0-1.7,0.4-2.2,1.1
		c-0.5,0.8-0.8,1.8-0.8,3.2c0,1.4,0.3,2.5,0.8,3.2s1.3,1.1,2.2,1.1c1.1,0,1.9-0.3,2.4-0.9s0.8-1.6,0.8-3v-0.4
		C162.1,1034.3,162.1,1034,162,1033.7z M162,1033.7v-0.4c0-0.2-0.1-0.4-0.1-0.6l0,0c-0.1-0.6-0.4-1-0.6-1.3c-0.5-0.7-1.3-1-2.4-1
		c-1,0-1.7,0.4-2.2,1.1c-0.5,0.8-0.8,1.8-0.8,3.2c0,1.4,0.3,2.5,0.8,3.2s1.3,1.1,2.2,1.1c1.1,0,1.9-0.3,2.4-0.9s0.8-1.6,0.8-3v-0.4
		C162.1,1034.3,162.1,1034,162,1033.7z M148.2,1034.8c-0.9,0-1.6,0.2-2.1,0.3c-0.1,0-0.1,0-0.2,0.1c0,0,0,0-0.1,0
		c-0.1,0.1-0.3,0.1-0.4,0.2c-0.6,0.4-0.9,0.9-0.9,1.7c0,0.6,0.2,1,0.5,1.4c0.4,0.3,0.9,0.5,1.5,0.5c1,0,1.8-0.3,2.4-0.8
		c0.6-0.6,0.9-1.3,0.9-2.4v-1L148.2,1034.8L148.2,1034.8z M127.3,1034.8c-1.1,0-2,0.2-2.6,0.5c-0.1,0-0.2,0.1-0.2,0.1
		c-0.6,0.4-0.9,0.9-0.9,1.7c0,0.6,0.2,1,0.5,1.4s0.9,0.5,1.5,0.5c1,0,1.8-0.3,2.4-0.8c0.6-0.6,0.9-1.3,0.9-2.4v-1L127.3,1034.8
		L127.3,1034.8z M109.1,1027.7c-0.6-0.5-1.6-0.7-2.9-0.7h-1.9v5.9h1.5c1.5,0,2.6-0.2,3.2-0.7c0.7-0.5,1-1.3,1-2.3
		S109.7,1028.2,109.1,1027.7z M90.5,1034.8c-0.9,0-1.6,0.2-2.1,0.3c-0.1,0-0.1,0-0.2,0.1c0,0,0,0-0.1,0c-0.1,0.1-0.3,0.1-0.4,0.2
		c-0.6,0.4-0.9,0.9-0.9,1.7c0,0.6,0.2,1,0.5,1.4c0.4,0.3,0.9,0.5,1.5,0.5c1,0,1.8-0.3,2.4-0.8c0.6-0.6,0.9-1.3,0.9-2.4v-1
		L90.5,1034.8L90.5,1034.8z M60,1031.2c-0.1-0.1-0.2-0.2-0.3-0.3C59.8,1031,60,1031.2,60,1031.2c0.2,0.3,0.4,0.7,0.5,1.1
		C60.4,1031.8,60.2,1031.5,60,1031.2z M55,1033.7L55,1033.7c0.2-1,0.5-1.8,1-2.4c0.5-0.5,1.1-0.8,1.8-0.9c-0.8,0-1.4,0.3-1.9,0.9
		S55.1,1032.7,55,1033.7z M60,1031.2c-0.1-0.1-0.2-0.2-0.3-0.3C59.8,1031,60,1031.2,60,1031.2c0.2,0.3,0.4,0.7,0.5,1.1
		C60.4,1031.8,60.2,1031.5,60,1031.2z M55,1033.7L55,1033.7c0.2-1,0.5-1.8,1-2.4c0.5-0.5,1.1-0.8,1.8-0.9c-0.8,0-1.4,0.3-1.9,0.9
		S55.1,1032.7,55,1033.7z M90.5,1034.8c-0.9,0-1.6,0.2-2.1,0.3c-0.1,0-0.1,0-0.2,0.1c0,0,0,0-0.1,0c-0.1,0.1-0.3,0.1-0.4,0.2
		c-0.6,0.4-0.9,0.9-0.9,1.7c0,0.6,0.2,1,0.5,1.4c0.4,0.3,0.9,0.5,1.5,0.5c1,0,1.8-0.3,2.4-0.8c0.6-0.6,0.9-1.3,0.9-2.4v-1
		L90.5,1034.8L90.5,1034.8z M109.1,1027.7c-0.6-0.5-1.6-0.7-2.9-0.7h-1.9v5.9h1.5c1.5,0,2.6-0.2,3.2-0.7c0.7-0.5,1-1.3,1-2.3
		S109.7,1028.2,109.1,1027.7z M127.3,1034.8c-1.1,0-2,0.2-2.6,0.5c-0.1,0-0.2,0.1-0.2,0.1c-0.6,0.4-0.9,0.9-0.9,1.7
		c0,0.6,0.2,1,0.5,1.4s0.9,0.5,1.5,0.5c1,0,1.8-0.3,2.4-0.8c0.6-0.6,0.9-1.3,0.9-2.4v-1L127.3,1034.8L127.3,1034.8z M148.2,1034.8
		c-0.9,0-1.6,0.2-2.1,0.3c-0.1,0-0.1,0-0.2,0.1c0,0,0,0-0.1,0c-0.1,0.1-0.3,0.1-0.4,0.2c-0.6,0.4-0.9,0.9-0.9,1.7
		c0,0.6,0.2,1,0.5,1.4c0.4,0.3,0.9,0.5,1.5,0.5c1,0,1.8-0.3,2.4-0.8c0.6-0.6,0.9-1.3,0.9-2.4v-1L148.2,1034.8L148.2,1034.8z
		 M162,1033.7v-0.4c0-0.2-0.1-0.4-0.1-0.6l0,0c-0.1-0.6-0.4-1-0.6-1.3c-0.5-0.7-1.3-1-2.4-1c-1,0-1.7,0.4-2.2,1.1
		c-0.5,0.8-0.8,1.8-0.8,3.2c0,1.4,0.3,2.5,0.8,3.2s1.3,1.1,2.2,1.1c1.1,0,1.9-0.3,2.4-0.9s0.8-1.6,0.8-3v-0.4
		C162.1,1034.3,162.1,1034,162,1033.7z M162,1033.7v-0.4c0-0.2-0.1-0.4-0.1-0.6l0,0c-0.1-0.6-0.4-1-0.6-1.3c-0.5-0.7-1.3-1-2.4-1
		c-1,0-1.7,0.4-2.2,1.1c-0.5,0.8-0.8,1.8-0.8,3.2c0,1.4,0.3,2.5,0.8,3.2s1.3,1.1,2.2,1.1c1.1,0,1.9-0.3,2.4-0.9s0.8-1.6,0.8-3v-0.4
		C162.1,1034.3,162.1,1034,162,1033.7z M148.2,1034.8c-0.9,0-1.6,0.2-2.1,0.3c-0.1,0-0.1,0-0.2,0.1c0,0,0,0-0.1,0
		c-0.1,0.1-0.3,0.1-0.4,0.2c-0.6,0.4-0.9,0.9-0.9,1.7c0,0.6,0.2,1,0.5,1.4c0.4,0.3,0.9,0.5,1.5,0.5c1,0,1.8-0.3,2.4-0.8
		c0.6-0.6,0.9-1.3,0.9-2.4v-1L148.2,1034.8L148.2,1034.8z M127.3,1034.8c-1.1,0-2,0.2-2.6,0.5c-0.1,0-0.2,0.1-0.2,0.1
		c-0.6,0.4-0.9,0.9-0.9,1.7c0,0.6,0.2,1,0.5,1.4s0.9,0.5,1.5,0.5c1,0,1.8-0.3,2.4-0.8c0.6-0.6,0.9-1.3,0.9-2.4v-1L127.3,1034.8
		L127.3,1034.8z M109.1,1027.7c-0.6-0.5-1.6-0.7-2.9-0.7h-1.9v5.9h1.5c1.5,0,2.6-0.2,3.2-0.7c0.7-0.5,1-1.3,1-2.3
		S109.7,1028.2,109.1,1027.7z M90.5,1034.8c-0.9,0-1.6,0.2-2.1,0.3c-0.1,0-0.1,0-0.2,0.1c0,0,0,0-0.1,0c-0.1,0.1-0.3,0.1-0.4,0.2
		c-0.6,0.4-0.9,0.9-0.9,1.7c0,0.6,0.2,1,0.5,1.4c0.4,0.3,0.9,0.5,1.5,0.5c1,0,1.8-0.3,2.4-0.8c0.6-0.6,0.9-1.3,0.9-2.4v-1
		L90.5,1034.8L90.5,1034.8z M60,1031.2c-0.1-0.1-0.2-0.2-0.3-0.3C59.8,1031,60,1031.2,60,1031.2c0.2,0.3,0.4,0.7,0.5,1.1
		C60.4,1031.8,60.2,1031.5,60,1031.2z M55,1033.7L55,1033.7c0.2-1,0.5-1.8,1-2.4c0.5-0.5,1.1-0.8,1.8-0.9c-0.8,0-1.4,0.3-1.9,0.9
		S55.1,1032.7,55,1033.7z M60.7,1033.7c0-0.5,0-1-0.2-1.4C60.6,1032.7,60.7,1033.2,60.7,1033.7L60.7,1033.7z M90.5,1034.9
		c-0.9,0-1.6,0.1-2.1,0.2c-0.1,0-0.1,0-0.2,0.1c0,0,0,0-0.1,0c-0.1,0.1-0.3,0.1-0.4,0.2c-0.6,0.4-0.9,0.9-0.9,1.7
		c0,0.6,0.2,1,0.5,1.4c0.4,0.3,0.9,0.5,1.5,0.5c1,0,1.8-0.3,2.4-0.8c0.6-0.6,0.9-1.3,0.9-2.4v-1L90.5,1034.9z M109.1,1027.7
		c-0.6-0.5-1.6-0.7-2.9-0.7h-1.9v5.9h1.5c1.5,0,2.6-0.2,3.2-0.7c0.7-0.5,1-1.3,1-2.3S109.7,1028.2,109.1,1027.7z M127.3,1034.9
		c-1.1,0-2,0.2-2.6,0.4c-0.1,0-0.2,0.1-0.2,0.1c-0.6,0.4-0.9,0.9-0.9,1.7c0,0.6,0.2,1,0.5,1.4s0.9,0.5,1.5,0.5c1,0,1.8-0.3,2.4-0.8
		c0.6-0.6,0.9-1.3,0.9-2.4v-1L127.3,1034.9z M148.2,1034.9c-0.9,0-1.6,0.1-2.1,0.2c-0.1,0-0.1,0-0.2,0.1c0,0,0,0-0.1,0
		c-0.1,0.1-0.3,0.1-0.4,0.2c-0.6,0.4-0.9,0.9-0.9,1.7c0,0.6,0.2,1,0.5,1.4c0.4,0.3,0.9,0.5,1.5,0.5c1,0,1.8-0.3,2.4-0.8
		c0.6-0.6,0.9-1.3,0.9-2.4v-1L148.2,1034.9z M162,1033.7v-0.4c0-0.2-0.1-0.4-0.1-0.6l0,0c-0.1-0.5-0.4-0.9-0.6-1.3
		c-0.5-0.7-1.3-1-2.4-1c-1,0-1.7,0.4-2.2,1.1c-0.5,0.8-0.8,1.8-0.8,3.2c0,1.4,0.3,2.5,0.8,3.2s1.3,1.1,2.2,1.1
		c1.1,0,1.9-0.3,2.4-0.9s0.8-1.6,0.8-3v-0.4C162.1,1034.3,162.1,1034,162,1033.7z M162,1033.7v-0.4c0-0.2-0.1-0.4-0.1-0.6l0,0
		c-0.1-0.6-0.4-1-0.6-1.3c-0.5-0.7-1.3-1-2.4-1c-1,0-1.7,0.4-2.2,1.1c-0.5,0.8-0.8,1.8-0.8,3.2c0,1.4,0.3,2.5,0.8,3.2
		s1.3,1.1,2.2,1.1c1.1,0,1.9-0.3,2.4-0.9s0.8-1.6,0.8-3v-0.4C162.1,1034.3,162.1,1034,162,1033.7z M148.2,1034.8
		c-0.9,0-1.6,0.2-2.1,0.3c-0.1,0-0.1,0-0.2,0.1c0,0,0,0-0.1,0c-0.1,0.1-0.3,0.1-0.4,0.2c-0.6,0.4-0.9,0.9-0.9,1.7
		c0,0.6,0.2,1,0.5,1.4c0.4,0.3,0.9,0.5,1.5,0.5c1,0,1.8-0.3,2.4-0.8c0.6-0.6,0.9-1.3,0.9-2.4v-1L148.2,1034.8L148.2,1034.8z
		 M127.3,1034.8c-1.1,0-2,0.2-2.6,0.5c-0.1,0-0.2,0.1-0.2,0.1c-0.6,0.4-0.9,0.9-0.9,1.7c0,0.6,0.2,1,0.5,1.4s0.9,0.5,1.5,0.5
		c1,0,1.8-0.3,2.4-0.8c0.6-0.6,0.9-1.3,0.9-2.4v-1L127.3,1034.8L127.3,1034.8z M109.1,1027.7c-0.6-0.5-1.6-0.7-2.9-0.7h-1.9v5.9h1.5
		c1.5,0,2.6-0.2,3.2-0.7c0.7-0.5,1-1.3,1-2.3S109.7,1028.2,109.1,1027.7z M90.5,1034.8c-0.9,0-1.6,0.2-2.1,0.3c-0.1,0-0.1,0-0.2,0.1
		c0,0,0,0-0.1,0c-0.1,0.1-0.3,0.1-0.4,0.2c-0.6,0.4-0.9,0.9-0.9,1.7c0,0.6,0.2,1,0.5,1.4c0.4,0.3,0.9,0.5,1.5,0.5
		c1,0,1.8-0.3,2.4-0.8c0.6-0.6,0.9-1.3,0.9-2.4v-1L90.5,1034.8L90.5,1034.8z M60.7,1033.7c0-0.5,0-1-0.2-1.4
		C60.6,1032.7,60.7,1033.2,60.7,1033.7L60.7,1033.7z M59.7,1030.9c0.1,0.1,0.3,0.3,0.3,0.4c0.2,0.2,0.4,0.6,0.5,1
		c-0.1-0.5-0.3-0.8-0.5-1.1C59.9,1031.1,59.8,1031,59.7,1030.9z M55,1033.7L55,1033.7c0.2-1,0.5-1.8,1-2.4c0.5-0.5,1.1-0.8,1.8-0.9
		c-0.8,0-1.4,0.3-1.9,0.9S55.1,1032.7,55,1033.7z M162,1033.7v-0.4c0-0.2-0.1-0.4-0.1-0.6l0,0c-0.1-0.6-0.4-1-0.6-1.3
		c-0.5-0.7-1.3-1-2.4-1c-1,0-1.7,0.4-2.2,1.1c-0.5,0.8-0.8,1.8-0.8,3.2c0,1.4,0.3,2.5,0.8,3.2s1.3,1.1,2.2,1.1
		c1.1,0,1.9-0.3,2.4-0.9s0.8-1.6,0.8-3v-0.4C162.1,1034.3,162.1,1034,162,1033.7z M148.2,1034.8c-0.9,0-1.6,0.2-2.1,0.3
		c-0.1,0-0.1,0-0.2,0.1c0,0,0,0-0.1,0c-0.1,0.1-0.3,0.1-0.4,0.2c-0.6,0.4-0.9,0.9-0.9,1.7c0,0.6,0.2,1,0.5,1.4
		c0.4,0.3,0.9,0.5,1.5,0.5c1,0,1.8-0.3,2.4-0.8c0.6-0.6,0.9-1.3,0.9-2.4v-1L148.2,1034.8L148.2,1034.8z M127.3,1034.8
		c-1.1,0-2,0.2-2.6,0.5c-0.1,0-0.2,0.1-0.2,0.1c-0.6,0.4-0.9,0.9-0.9,1.7c0,0.6,0.2,1,0.5,1.4s0.9,0.5,1.5,0.5c1,0,1.8-0.3,2.4-0.8
		c0.6-0.6,0.9-1.3,0.9-2.4v-1L127.3,1034.8L127.3,1034.8z M109.1,1027.7c-0.6-0.5-1.6-0.7-2.9-0.7h-1.9v5.9h1.5
		c1.5,0,2.6-0.2,3.2-0.7c0.7-0.5,1-1.3,1-2.3S109.7,1028.2,109.1,1027.7z M90.5,1034.8c-0.9,0-1.6,0.2-2.1,0.3c-0.1,0-0.1,0-0.2,0.1
		c0,0,0,0-0.1,0c-0.1,0.1-0.3,0.1-0.4,0.2c-0.6,0.4-0.9,0.9-0.9,1.7c0,0.6,0.2,1,0.5,1.4c0.4,0.3,0.9,0.5,1.5,0.5
		c1,0,1.8-0.3,2.4-0.8c0.6-0.6,0.9-1.3,0.9-2.4v-1L90.5,1034.8L90.5,1034.8z M60.7,1033.7c0-0.5,0-1-0.2-1.4
		C60.6,1032.7,60.7,1033.2,60.7,1033.7L60.7,1033.7z M59.7,1030.9c0.1,0.1,0.3,0.3,0.3,0.4c0.2,0.2,0.4,0.6,0.5,1
		c-0.1-0.5-0.3-0.8-0.5-1.1C59.9,1031.1,59.8,1031,59.7,1030.9z M55,1033.7L55,1033.7c0.2-1,0.5-1.8,1-2.4c0.5-0.5,1.1-0.8,1.8-0.9
		c-0.8,0-1.4,0.3-1.9,0.9S55.1,1032.7,55,1033.7z M60,1031.2c-0.1-0.1-0.2-0.2-0.3-0.3C59.8,1031,60,1031.2,60,1031.2
		c0.2,0.3,0.4,0.7,0.5,1.1C60.4,1031.8,60.2,1031.5,60,1031.2z M55,1033.7L55,1033.7c0.2-1,0.5-1.8,1-2.4c0.5-0.5,1.1-0.8,1.8-0.9
		c-0.8,0-1.4,0.3-1.9,0.9S55.1,1032.7,55,1033.7z M90.5,1034.8c-0.9,0-1.6,0.2-2.1,0.3c-0.1,0-0.1,0-0.2,0.1c0,0,0,0-0.1,0
		c-0.1,0.1-0.3,0.1-0.4,0.2c-0.6,0.4-0.9,0.9-0.9,1.7c0,0.6,0.2,1,0.5,1.4c0.4,0.3,0.9,0.5,1.5,0.5c1,0,1.8-0.3,2.4-0.8
		c0.6-0.6,0.9-1.3,0.9-2.4v-1L90.5,1034.8L90.5,1034.8z M109.1,1027.7c-0.6-0.5-1.6-0.7-2.9-0.7h-1.9v5.9h1.5c1.5,0,2.6-0.2,3.2-0.7
		c0.7-0.5,1-1.3,1-2.3S109.7,1028.2,109.1,1027.7z M127.3,1034.8c-1.1,0-2,0.2-2.6,0.5c-0.1,0-0.2,0.1-0.2,0.1
		c-0.6,0.4-0.9,0.9-0.9,1.7c0,0.6,0.2,1,0.5,1.4s0.9,0.5,1.5,0.5c1,0,1.8-0.3,2.4-0.8c0.6-0.6,0.9-1.3,0.9-2.4v-1L127.3,1034.8
		L127.3,1034.8z M148.2,1034.8c-0.9,0-1.6,0.2-2.1,0.3c-0.1,0-0.1,0-0.2,0.1c0,0,0,0-0.1,0c-0.1,0.1-0.3,0.1-0.4,0.2
		c-0.6,0.4-0.9,0.9-0.9,1.7c0,0.6,0.2,1,0.5,1.4c0.4,0.3,0.9,0.5,1.5,0.5c1,0,1.8-0.3,2.4-0.8c0.6-0.6,0.9-1.3,0.9-2.4v-1
		L148.2,1034.8L148.2,1034.8z M162,1033.7v-0.4c0-0.2-0.1-0.4-0.1-0.6l0,0c-0.1-0.6-0.4-1-0.6-1.3c-0.5-0.7-1.3-1-2.4-1
		c-1,0-1.7,0.4-2.2,1.1c-0.5,0.8-0.8,1.8-0.8,3.2c0,1.4,0.3,2.5,0.8,3.2s1.3,1.1,2.2,1.1c1.1,0,1.9-0.3,2.4-0.9s0.8-1.6,0.8-3v-0.4
		C162.1,1034.3,162.1,1034,162,1033.7z M162,1033.7v-0.4c0-0.2-0.1-0.4-0.1-0.6l0,0c-0.1-0.6-0.4-1-0.6-1.3c-0.5-0.7-1.3-1-2.4-1
		c-1,0-1.7,0.4-2.2,1.1c-0.5,0.8-0.8,1.8-0.8,3.2c0,1.4,0.3,2.5,0.8,3.2s1.3,1.1,2.2,1.1c1.1,0,1.9-0.3,2.4-0.9s0.8-1.6,0.8-3v-0.4
		C162.1,1034.3,162.1,1034,162,1033.7z M148.2,1034.8c-0.9,0-1.6,0.2-2.1,0.3c-0.1,0-0.1,0-0.2,0.1c0,0,0,0-0.1,0
		c-0.1,0.1-0.3,0.1-0.4,0.2c-0.6,0.4-0.9,0.9-0.9,1.7c0,0.6,0.2,1,0.5,1.4c0.4,0.3,0.9,0.5,1.5,0.5c1,0,1.8-0.3,2.4-0.8
		c0.6-0.6,0.9-1.3,0.9-2.4v-1L148.2,1034.8L148.2,1034.8z M127.3,1034.8c-1.1,0-2,0.2-2.6,0.5c-0.1,0-0.2,0.1-0.2,0.1
		c-0.6,0.4-0.9,0.9-0.9,1.7c0,0.6,0.2,1,0.5,1.4s0.9,0.5,1.5,0.5c1,0,1.8-0.3,2.4-0.8c0.6-0.6,0.9-1.3,0.9-2.4v-1L127.3,1034.8
		L127.3,1034.8z M109.1,1027.7c-0.6-0.5-1.6-0.7-2.9-0.7h-1.9v5.9h1.5c1.5,0,2.6-0.2,3.2-0.7c0.7-0.5,1-1.3,1-2.3
		S109.7,1028.2,109.1,1027.7z M90.5,1034.8c-0.9,0-1.6,0.2-2.1,0.3c-0.1,0-0.1,0-0.2,0.1c0,0,0,0-0.1,0c-0.1,0.1-0.3,0.1-0.4,0.2
		c-0.6,0.4-0.9,0.9-0.9,1.7c0,0.6,0.2,1,0.5,1.4c0.4,0.3,0.9,0.5,1.5,0.5c1,0,1.8-0.3,2.4-0.8c0.6-0.6,0.9-1.3,0.9-2.4v-1
		L90.5,1034.8L90.5,1034.8z M60,1031.2c-0.1-0.1-0.2-0.2-0.3-0.3C59.8,1031,60,1031.2,60,1031.2c0.2,0.3,0.4,0.7,0.5,1.1
		C60.4,1031.8,60.2,1031.5,60,1031.2z M55,1033.7L55,1033.7c0.2-1,0.5-1.8,1-2.4c0.5-0.5,1.1-0.8,1.8-0.9c-0.8,0-1.4,0.3-1.9,0.9
		S55.1,1032.7,55,1033.7z M60,1031.2c-0.1-0.1-0.2-0.2-0.3-0.3C59.8,1031,60,1031.2,60,1031.2c0.2,0.3,0.4,0.7,0.5,1.1
		C60.4,1031.8,60.2,1031.5,60,1031.2z M55,1033.7L55,1033.7c0.2-1,0.5-1.8,1-2.4c0.5-0.5,1.1-0.8,1.8-0.9c-0.8,0-1.4,0.3-1.9,0.9
		S55.1,1032.7,55,1033.7z M90.5,1034.8c-0.9,0-1.6,0.2-2.1,0.3c-0.1,0-0.1,0-0.2,0.1c0,0,0,0-0.1,0c-0.1,0.1-0.3,0.1-0.4,0.2
		c-0.6,0.4-0.9,0.9-0.9,1.7c0,0.6,0.2,1,0.5,1.4c0.4,0.3,0.9,0.5,1.5,0.5c1,0,1.8-0.3,2.4-0.8c0.6-0.6,0.9-1.3,0.9-2.4v-1
		L90.5,1034.8L90.5,1034.8z M109.1,1027.7c-0.6-0.5-1.6-0.7-2.9-0.7h-1.9v5.9h1.5c1.5,0,2.6-0.2,3.2-0.7c0.7-0.5,1-1.3,1-2.3
		S109.7,1028.2,109.1,1027.7z M127.3,1034.8c-1.1,0-2,0.2-2.6,0.5c-0.1,0-0.2,0.1-0.2,0.1c-0.6,0.4-0.9,0.9-0.9,1.7
		c0,0.6,0.2,1,0.5,1.4s0.9,0.5,1.5,0.5c1,0,1.8-0.3,2.4-0.8c0.6-0.6,0.9-1.3,0.9-2.4v-1L127.3,1034.8L127.3,1034.8z M148.2,1034.8
		c-0.9,0-1.6,0.2-2.1,0.3c-0.1,0-0.1,0-0.2,0.1c0,0,0,0-0.1,0c-0.1,0.1-0.3,0.1-0.4,0.2c-0.6,0.4-0.9,0.9-0.9,1.7
		c0,0.6,0.2,1,0.5,1.4c0.4,0.3,0.9,0.5,1.5,0.5c1,0,1.8-0.3,2.4-0.8c0.6-0.6,0.9-1.3,0.9-2.4v-1L148.2,1034.8L148.2,1034.8z
		 M162,1033.7v-0.4c0-0.2-0.1-0.4-0.1-0.6l0,0c-0.1-0.6-0.4-1-0.6-1.3c-0.5-0.7-1.3-1-2.4-1c-1,0-1.7,0.4-2.2,1.1
		c-0.5,0.8-0.8,1.8-0.8,3.2c0,1.4,0.3,2.5,0.8,3.2s1.3,1.1,2.2,1.1c1.1,0,1.9-0.3,2.4-0.9s0.8-1.6,0.8-3v-0.4
		C162.1,1034.3,162.1,1034,162,1033.7z M162,1033.7v-0.4c0-0.2-0.1-0.4-0.1-0.6l0,0c-0.1-0.6-0.4-1-0.6-1.3c-0.5-0.7-1.3-1-2.4-1
		c-1,0-1.7,0.4-2.2,1.1c-0.5,0.8-0.8,1.8-0.8,3.2c0,1.4,0.3,2.5,0.8,3.2s1.3,1.1,2.2,1.1c1.1,0,1.9-0.3,2.4-0.9s0.8-1.6,0.8-3v-0.4
		C162.1,1034.3,162.1,1034,162,1033.7z M148.2,1034.8c-0.9,0-1.6,0.2-2.1,0.3c-0.1,0-0.1,0-0.2,0.1c0,0,0,0-0.1,0
		c-0.1,0.1-0.3,0.1-0.4,0.2c-0.6,0.4-0.9,0.9-0.9,1.7c0,0.6,0.2,1,0.5,1.4c0.4,0.3,0.9,0.5,1.5,0.5c1,0,1.8-0.3,2.4-0.8
		c0.6-0.6,0.9-1.3,0.9-2.4v-1L148.2,1034.8L148.2,1034.8z M127.3,1034.8c-1.1,0-2,0.2-2.6,0.5c-0.1,0-0.2,0.1-0.2,0.1
		c-0.6,0.4-0.9,0.9-0.9,1.7c0,0.6,0.2,1,0.5,1.4s0.9,0.5,1.5,0.5c1,0,1.8-0.3,2.4-0.8c0.6-0.6,0.9-1.3,0.9-2.4v-1L127.3,1034.8
		L127.3,1034.8z M109.1,1027.7c-0.6-0.5-1.6-0.7-2.9-0.7h-1.9v5.9h1.5c1.5,0,2.6-0.2,3.2-0.7c0.7-0.5,1-1.3,1-2.3
		S109.7,1028.2,109.1,1027.7z M90.5,1034.8c-0.9,0-1.6,0.2-2.1,0.3c-0.1,0-0.1,0-0.2,0.1c0,0,0,0-0.1,0c-0.1,0.1-0.3,0.1-0.4,0.2
		c-0.6,0.4-0.9,0.9-0.9,1.7c0,0.6,0.2,1,0.5,1.4c0.4,0.3,0.9,0.5,1.5,0.5c1,0,1.8-0.3,2.4-0.8c0.6-0.6,0.9-1.3,0.9-2.4v-1
		L90.5,1034.8L90.5,1034.8z M60,1031.2c-0.1-0.1-0.2-0.2-0.3-0.3C59.8,1031,60,1031.2,60,1031.2c0.2,0.3,0.4,0.7,0.5,1.1
		C60.4,1031.8,60.2,1031.5,60,1031.2z M55,1033.7L55,1033.7c0.2-1,0.5-1.8,1-2.4c0.5-0.5,1.1-0.8,1.8-0.9c-0.8,0-1.4,0.3-1.9,0.9
		S55.1,1032.7,55,1033.7z M60,1031.2c-0.1-0.1-0.2-0.2-0.3-0.3C59.8,1031,60,1031.2,60,1031.2c0.2,0.3,0.4,0.7,0.5,1.1
		C60.4,1031.8,60.2,1031.5,60,1031.2z M55,1033.7L55,1033.7c0.2-1,0.5-1.8,1-2.4c0.5-0.5,1.1-0.8,1.8-0.9c-0.8,0-1.4,0.3-1.9,0.9
		S55.1,1032.7,55,1033.7z M90.5,1034.8c-0.9,0-1.6,0.2-2.1,0.3c-0.1,0-0.1,0-0.2,0.1c0,0,0,0-0.1,0c-0.1,0.1-0.3,0.1-0.4,0.2
		c-0.6,0.4-0.9,0.9-0.9,1.7c0,0.6,0.2,1,0.5,1.4c0.4,0.3,0.9,0.5,1.5,0.5c1,0,1.8-0.3,2.4-0.8c0.6-0.6,0.9-1.3,0.9-2.4v-1
		L90.5,1034.8L90.5,1034.8z M109.1,1027.7c-0.6-0.5-1.6-0.7-2.9-0.7h-1.9v5.9h1.5c1.5,0,2.6-0.2,3.2-0.7c0.7-0.5,1-1.3,1-2.3
		S109.7,1028.2,109.1,1027.7z M127.3,1034.8c-1.1,0-2,0.2-2.6,0.5c-0.1,0-0.2,0.1-0.2,0.1c-0.6,0.4-0.9,0.9-0.9,1.7
		c0,0.6,0.2,1,0.5,1.4s0.9,0.5,1.5,0.5c1,0,1.8-0.3,2.4-0.8c0.6-0.6,0.9-1.3,0.9-2.4v-1L127.3,1034.8L127.3,1034.8z M148.2,1034.8
		c-0.9,0-1.6,0.2-2.1,0.3c-0.1,0-0.1,0-0.2,0.1c0,0,0,0-0.1,0c-0.1,0.1-0.3,0.1-0.4,0.2c-0.6,0.4-0.9,0.9-0.9,1.7
		c0,0.6,0.2,1,0.5,1.4c0.4,0.3,0.9,0.5,1.5,0.5c1,0,1.8-0.3,2.4-0.8c0.6-0.6,0.9-1.3,0.9-2.4v-1L148.2,1034.8L148.2,1034.8z
		 M162,1033.7v-0.4c0-0.2-0.1-0.4-0.1-0.6l0,0c-0.1-0.6-0.4-1-0.6-1.3c-0.5-0.7-1.3-1-2.4-1c-1,0-1.7,0.4-2.2,1.1
		c-0.5,0.8-0.8,1.8-0.8,3.2c0,1.4,0.3,2.5,0.8,3.2s1.3,1.1,2.2,1.1c1.1,0,1.9-0.3,2.4-0.9s0.8-1.6,0.8-3v-0.4
		C162.1,1034.3,162.1,1034,162,1033.7z M162,1033.7v-0.4c0-0.2-0.1-0.4-0.1-0.6l0,0c-0.1-0.6-0.4-1-0.6-1.3c-0.5-0.7-1.3-1-2.4-1
		c-1,0-1.7,0.4-2.2,1.1c-0.5,0.8-0.8,1.8-0.8,3.2c0,1.4,0.3,2.5,0.8,3.2s1.3,1.1,2.2,1.1c1.1,0,1.9-0.3,2.4-0.9s0.8-1.6,0.8-3v-0.4
		C162.1,1034.3,162.1,1034,162,1033.7z M148.2,1034.8c-0.9,0-1.6,0.2-2.1,0.3c-0.1,0-0.1,0-0.2,0.1c0,0,0,0-0.1,0
		c-0.1,0.1-0.3,0.1-0.4,0.2c-0.6,0.4-0.9,0.9-0.9,1.7c0,0.6,0.2,1,0.5,1.4c0.4,0.3,0.9,0.5,1.5,0.5c1,0,1.8-0.3,2.4-0.8
		c0.6-0.6,0.9-1.3,0.9-2.4v-1L148.2,1034.8L148.2,1034.8z M127.3,1034.8c-1.1,0-2,0.2-2.6,0.5c-0.1,0-0.2,0.1-0.2,0.1
		c-0.6,0.4-0.9,0.9-0.9,1.7c0,0.6,0.2,1,0.5,1.4s0.9,0.5,1.5,0.5c1,0,1.8-0.3,2.4-0.8c0.6-0.6,0.9-1.3,0.9-2.4v-1L127.3,1034.8
		L127.3,1034.8z M109.1,1027.7c-0.6-0.5-1.6-0.7-2.9-0.7h-1.9v5.9h1.5c1.5,0,2.6-0.2,3.2-0.7c0.7-0.5,1-1.3,1-2.3
		S109.7,1028.2,109.1,1027.7z M90.5,1034.8c-0.9,0-1.6,0.2-2.1,0.3c-0.1,0-0.1,0-0.2,0.1c0,0,0,0-0.1,0c-0.1,0.1-0.3,0.1-0.4,0.2
		c-0.6,0.4-0.9,0.9-0.9,1.7c0,0.6,0.2,1,0.5,1.4c0.4,0.3,0.9,0.5,1.5,0.5c1,0,1.8-0.3,2.4-0.8c0.6-0.6,0.9-1.3,0.9-2.4v-1
		L90.5,1034.8L90.5,1034.8z M60,1031.2c-0.1-0.1-0.2-0.2-0.3-0.3C59.8,1031,60,1031.2,60,1031.2c0.2,0.3,0.4,0.7,0.5,1.1
		C60.4,1031.8,60.2,1031.5,60,1031.2z M55,1033.7L55,1033.7c0.2-1,0.5-1.8,1-2.4c0.5-0.5,1.1-0.8,1.8-0.9c-0.8,0-1.4,0.3-1.9,0.9
		S55.1,1032.7,55,1033.7z M60,1031.2c-0.1-0.1-0.2-0.2-0.3-0.3C59.8,1031,60,1031.2,60,1031.2c0.2,0.3,0.4,0.7,0.5,1.1
		C60.4,1031.8,60.2,1031.5,60,1031.2z M55,1033.7L55,1033.7c0.2-1,0.5-1.8,1-2.4c0.5-0.5,1.1-0.8,1.8-0.9c-0.8,0-1.4,0.3-1.9,0.9
		S55.1,1032.7,55,1033.7z M90.5,1034.8c-0.9,0-1.6,0.2-2.1,0.3c-0.1,0-0.1,0-0.2,0.1c0,0,0,0-0.1,0c-0.1,0.1-0.3,0.1-0.4,0.2
		c-0.6,0.4-0.9,0.9-0.9,1.7c0,0.6,0.2,1,0.5,1.4c0.4,0.3,0.9,0.5,1.5,0.5c1,0,1.8-0.3,2.4-0.8c0.6-0.6,0.9-1.3,0.9-2.4v-1
		L90.5,1034.8L90.5,1034.8z M109.1,1027.7c-0.6-0.5-1.6-0.7-2.9-0.7h-1.9v5.9h1.5c1.5,0,2.6-0.2,3.2-0.7c0.7-0.5,1-1.3,1-2.3
		S109.7,1028.2,109.1,1027.7z M127.3,1034.8c-1.1,0-2,0.2-2.6,0.5c-0.1,0-0.2,0.1-0.2,0.1c-0.6,0.4-0.9,0.9-0.9,1.7
		c0,0.6,0.2,1,0.5,1.4s0.9,0.5,1.5,0.5c1,0,1.8-0.3,2.4-0.8c0.6-0.6,0.9-1.3,0.9-2.4v-1L127.3,1034.8L127.3,1034.8z M148.2,1034.8
		c-0.9,0-1.6,0.2-2.1,0.3c-0.1,0-0.1,0-0.2,0.1c0,0,0,0-0.1,0c-0.1,0.1-0.3,0.1-0.4,0.2c-0.6,0.4-0.9,0.9-0.9,1.7
		c0,0.6,0.2,1,0.5,1.4c0.4,0.3,0.9,0.5,1.5,0.5c1,0,1.8-0.3,2.4-0.8c0.6-0.6,0.9-1.3,0.9-2.4v-1L148.2,1034.8L148.2,1034.8z
		 M162,1033.7v-0.4c0-0.2-0.1-0.4-0.1-0.6l0,0c-0.1-0.6-0.4-1-0.6-1.3c-0.5-0.7-1.3-1-2.4-1c-1,0-1.7,0.4-2.2,1.1
		c-0.5,0.8-0.8,1.8-0.8,3.2c0,1.4,0.3,2.5,0.8,3.2s1.3,1.1,2.2,1.1c1.1,0,1.9-0.3,2.4-0.9s0.8-1.6,0.8-3v-0.4
		C162.1,1034.3,162.1,1034,162,1033.7z M162,1033.7v-0.4c0-0.2-0.1-0.4-0.1-0.6l0,0c-0.1-0.6-0.4-1-0.6-1.3c-0.5-0.7-1.3-1-2.4-1
		c-1,0-1.7,0.4-2.2,1.1c-0.5,0.8-0.8,1.8-0.8,3.2c0,1.4,0.3,2.5,0.8,3.2s1.3,1.1,2.2,1.1c1.1,0,1.9-0.3,2.4-0.9s0.8-1.6,0.8-3v-0.4
		C162.1,1034.3,162.1,1034,162,1033.7z M148.2,1034.8c-0.9,0-1.6,0.2-2.1,0.3c-0.1,0-0.1,0-0.2,0.1c0,0,0,0-0.1,0
		c-0.1,0.1-0.3,0.1-0.4,0.2c-0.6,0.4-0.9,0.9-0.9,1.7c0,0.6,0.2,1,0.5,1.4c0.4,0.3,0.9,0.5,1.5,0.5c1,0,1.8-0.3,2.4-0.8
		c0.6-0.6,0.9-1.3,0.9-2.4v-1L148.2,1034.8L148.2,1034.8z M127.3,1034.8c-1.1,0-2,0.2-2.6,0.5c-0.1,0-0.2,0.1-0.2,0.1
		c-0.6,0.4-0.9,0.9-0.9,1.7c0,0.6,0.2,1,0.5,1.4s0.9,0.5,1.5,0.5c1,0,1.8-0.3,2.4-0.8c0.6-0.6,0.9-1.3,0.9-2.4v-1L127.3,1034.8
		L127.3,1034.8z M109.1,1027.7c-0.6-0.5-1.6-0.7-2.9-0.7h-1.9v5.9h1.5c1.5,0,2.6-0.2,3.2-0.7c0.7-0.5,1-1.3,1-2.3
		S109.7,1028.2,109.1,1027.7z M90.5,1034.8c-0.9,0-1.6,0.2-2.1,0.3c-0.1,0-0.1,0-0.2,0.1c0,0,0,0-0.1,0c-0.1,0.1-0.3,0.1-0.4,0.2
		c-0.6,0.4-0.9,0.9-0.9,1.7c0,0.6,0.2,1,0.5,1.4c0.4,0.3,0.9,0.5,1.5,0.5c1,0,1.8-0.3,2.4-0.8c0.6-0.6,0.9-1.3,0.9-2.4v-1
		L90.5,1034.8L90.5,1034.8z M60,1031.2c-0.1-0.1-0.2-0.2-0.3-0.3C59.8,1031,60,1031.2,60,1031.2c0.2,0.3,0.4,0.7,0.5,1.1
		C60.4,1031.8,60.2,1031.5,60,1031.2z M55,1033.7L55,1033.7c0.2-1,0.5-1.8,1-2.4c0.5-0.5,1.1-0.8,1.8-0.9c-0.8,0-1.4,0.3-1.9,0.9
		S55.1,1032.7,55,1033.7z M90.5,1034.8c-0.9,0-1.6,0.2-2.1,0.3c-0.1,0-0.1,0-0.2,0.1c0,0,0,0-0.1,0c-0.1,0.1-0.3,0.1-0.4,0.2
		c-0.6,0.4-0.9,0.9-0.9,1.7c0,0.6,0.2,1,0.5,1.4c0.4,0.3,0.9,0.5,1.5,0.5c1,0,1.8-0.3,2.4-0.8c0.6-0.6,0.9-1.3,0.9-2.4v-1
		L90.5,1034.8L90.5,1034.8z M109.1,1027.7c-0.6-0.5-1.6-0.7-2.9-0.7h-1.9v5.9h1.5c1.5,0,2.6-0.2,3.2-0.7c0.7-0.5,1-1.3,1-2.3
		S109.7,1028.2,109.1,1027.7z M127.3,1034.8c-1.1,0-2,0.2-2.6,0.5c-0.1,0-0.2,0.1-0.2,0.1c-0.6,0.4-0.9,0.9-0.9,1.7
		c0,0.6,0.2,1,0.5,1.4s0.9,0.5,1.5,0.5c1,0,1.8-0.3,2.4-0.8c0.6-0.6,0.9-1.3,0.9-2.4v-1L127.3,1034.8L127.3,1034.8z M148.2,1034.8
		c-0.9,0-1.6,0.2-2.1,0.3c-0.1,0-0.1,0-0.2,0.1c0,0,0,0-0.1,0c-0.1,0.1-0.3,0.1-0.4,0.2c-0.6,0.4-0.9,0.9-0.9,1.7
		c0,0.6,0.2,1,0.5,1.4c0.4,0.3,0.9,0.5,1.5,0.5c1,0,1.8-0.3,2.4-0.8c0.6-0.6,0.9-1.3,0.9-2.4v-1L148.2,1034.8L148.2,1034.8z
		 M162,1033.7v-0.4c0-0.2-0.1-0.4-0.1-0.6l0,0c-0.1-0.6-0.4-1-0.6-1.3c-0.5-0.7-1.3-1-2.4-1c-1,0-1.7,0.4-2.2,1.1
		c-0.5,0.8-0.8,1.8-0.8,3.2c0,1.4,0.3,2.5,0.8,3.2s1.3,1.1,2.2,1.1c1.1,0,1.9-0.3,2.4-0.9s0.8-1.6,0.8-3v-0.4
		C162.1,1034.3,162.1,1034,162,1033.7z M162,1033.7v-0.4c0-0.2-0.1-0.4-0.1-0.6l0,0c-0.1-0.6-0.4-1-0.6-1.3c-0.5-0.7-1.3-1-2.4-1
		c-1,0-1.7,0.4-2.2,1.1c-0.5,0.8-0.8,1.8-0.8,3.2c0,1.4,0.3,2.5,0.8,3.2s1.3,1.1,2.2,1.1c1.1,0,1.9-0.3,2.4-0.9s0.8-1.6,0.8-3v-0.4
		C162.1,1034.3,162.1,1034,162,1033.7z M148.2,1034.8c-0.9,0-1.6,0.2-2.1,0.3c-0.1,0-0.1,0-0.2,0.1c0,0,0,0-0.1,0
		c-0.1,0.1-0.3,0.1-0.4,0.2c-0.6,0.4-0.9,0.9-0.9,1.7c0,0.6,0.2,1,0.5,1.4c0.4,0.3,0.9,0.5,1.5,0.5c1,0,1.8-0.3,2.4-0.8
		c0.6-0.6,0.9-1.3,0.9-2.4v-1L148.2,1034.8L148.2,1034.8z M127.3,1034.8c-1.1,0-2,0.2-2.6,0.5c-0.1,0-0.2,0.1-0.2,0.1
		c-0.6,0.4-0.9,0.9-0.9,1.7c0,0.6,0.2,1,0.5,1.4s0.9,0.5,1.5,0.5c1,0,1.8-0.3,2.4-0.8c0.6-0.6,0.9-1.3,0.9-2.4v-1L127.3,1034.8
		L127.3,1034.8z M109.1,1027.7c-0.6-0.5-1.6-0.7-2.9-0.7h-1.9v5.9h1.5c1.5,0,2.6-0.2,3.2-0.7c0.7-0.5,1-1.3,1-2.3
		S109.7,1028.2,109.1,1027.7z M90.5,1034.8c-0.9,0-1.6,0.2-2.1,0.3c-0.1,0-0.1,0-0.2,0.1c0,0,0,0-0.1,0c-0.1,0.1-0.3,0.1-0.4,0.2
		c-0.6,0.4-0.9,0.9-0.9,1.7c0,0.6,0.2,1,0.5,1.4c0.4,0.3,0.9,0.5,1.5,0.5c1,0,1.8-0.3,2.4-0.8c0.6-0.6,0.9-1.3,0.9-2.4v-1
		L90.5,1034.8L90.5,1034.8z M90.5,1034.8c-0.9,0-1.6,0.2-2.1,0.3c-0.1,0-0.1,0-0.2,0.1c0,0,0,0-0.1,0c-0.1,0.1-0.3,0.1-0.4,0.2
		c-0.6,0.4-0.9,0.9-0.9,1.7c0,0.6,0.2,1,0.5,1.4c0.4,0.3,0.9,0.5,1.5,0.5c1,0,1.8-0.3,2.4-0.8c0.6-0.6,0.9-1.3,0.9-2.4v-1
		L90.5,1034.8L90.5,1034.8z M109.1,1027.7c-0.6-0.5-1.6-0.7-2.9-0.7h-1.9v5.9h1.5c1.5,0,2.6-0.2,3.2-0.7c0.7-0.5,1-1.3,1-2.3
		S109.7,1028.2,109.1,1027.7z M127.3,1034.8c-1.1,0-2,0.2-2.6,0.5c-0.1,0-0.2,0.1-0.2,0.1c-0.6,0.4-0.9,0.9-0.9,1.7
		c0,0.6,0.2,1,0.5,1.4s0.9,0.5,1.5,0.5c1,0,1.8-0.3,2.4-0.8c0.6-0.6,0.9-1.3,0.9-2.4v-1L127.3,1034.8L127.3,1034.8z M148.2,1034.8
		c-0.9,0-1.6,0.2-2.1,0.3c-0.1,0-0.1,0-0.2,0.1c0,0,0,0-0.1,0c-0.1,0.1-0.3,0.1-0.4,0.2c-0.6,0.4-0.9,0.9-0.9,1.7
		c0,0.6,0.2,1,0.5,1.4c0.4,0.3,0.9,0.5,1.5,0.5c1,0,1.8-0.3,2.4-0.8c0.6-0.6,0.9-1.3,0.9-2.4v-1L148.2,1034.8L148.2,1034.8z
		 M162,1033.7v-0.4c0-0.2-0.1-0.4-0.1-0.6l0,0c-0.1-0.6-0.4-1-0.6-1.3c-0.5-0.7-1.3-1-2.4-1c-1,0-1.7,0.4-2.2,1.1
		c-0.5,0.8-0.8,1.8-0.8,3.2c0,1.4,0.3,2.5,0.8,3.2s1.3,1.1,2.2,1.1c1.1,0,1.9-0.3,2.4-0.9s0.8-1.6,0.8-3v-0.4
		C162.1,1034.3,162.1,1034,162,1033.7z M162,1033.7v-0.4c0-0.2-0.1-0.4-0.1-0.6l0,0c-0.1-0.6-0.4-1-0.6-1.3c-0.5-0.7-1.3-1-2.4-1
		c-1,0-1.7,0.4-2.2,1.1c-0.5,0.8-0.8,1.8-0.8,3.2c0,1.4,0.3,2.5,0.8,3.2s1.3,1.1,2.2,1.1c1.1,0,1.9-0.3,2.4-0.9s0.8-1.6,0.8-3v-0.4
		C162.1,1034.3,162.1,1034,162,1033.7z M148.2,1034.8c-0.9,0-1.6,0.2-2.1,0.3c-0.1,0-0.1,0-0.2,0.1c0,0,0,0-0.1,0
		c-0.1,0.1-0.3,0.1-0.4,0.2c-0.6,0.4-0.9,0.9-0.9,1.7c0,0.6,0.2,1,0.5,1.4c0.4,0.3,0.9,0.5,1.5,0.5c1,0,1.8-0.3,2.4-0.8
		c0.6-0.6,0.9-1.3,0.9-2.4v-1L148.2,1034.8L148.2,1034.8z M127.3,1034.8c-1.1,0-2,0.2-2.6,0.5c-0.1,0-0.2,0.1-0.2,0.1
		c-0.6,0.4-0.9,0.9-0.9,1.7c0,0.6,0.2,1,0.5,1.4s0.9,0.5,1.5,0.5c1,0,1.8-0.3,2.4-0.8c0.6-0.6,0.9-1.3,0.9-2.4v-1L127.3,1034.8
		L127.3,1034.8z M109.1,1027.7c-0.6-0.5-1.6-0.7-2.9-0.7h-1.9v5.9h1.5c1.5,0,2.6-0.2,3.2-0.7c0.7-0.5,1-1.3,1-2.3
		S109.7,1028.2,109.1,1027.7z M90.5,1034.8c-0.9,0-1.6,0.2-2.1,0.3c-0.1,0-0.1,0-0.2,0.1c0,0,0,0-0.1,0c-0.1,0.1-0.3,0.1-0.4,0.2
		c-0.6,0.4-0.9,0.9-0.9,1.7c0,0.6,0.2,1,0.5,1.4c0.4,0.3,0.9,0.5,1.5,0.5c1,0,1.8-0.3,2.4-0.8c0.6-0.6,0.9-1.3,0.9-2.4v-1
		L90.5,1034.8L90.5,1034.8z M127.3,1034.8c-1.1,0-2,0.2-2.6,0.5c-0.1,0-0.2,0.1-0.2,0.1c-0.6,0.4-0.9,0.9-0.9,1.7
		c0,0.6,0.2,1,0.5,1.4s0.9,0.5,1.5,0.5c1,0,1.8-0.3,2.4-0.8c0.6-0.6,0.9-1.3,0.9-2.4v-1L127.3,1034.8L127.3,1034.8z M148.2,1034.8
		c-0.9,0-1.6,0.2-2.1,0.3c-0.1,0-0.1,0-0.2,0.1c0,0,0,0-0.1,0c-0.1,0.1-0.3,0.1-0.4,0.2c-0.6,0.4-0.9,0.9-0.9,1.7
		c0,0.6,0.2,1,0.5,1.4c0.4,0.3,0.9,0.5,1.5,0.5c1,0,1.8-0.3,2.4-0.8c0.6-0.6,0.9-1.3,0.9-2.4v-1L148.2,1034.8L148.2,1034.8z
		 M162,1033.7v-0.4c0-0.2-0.1-0.4-0.1-0.6l0,0c-0.1-0.6-0.4-1-0.6-1.3c-0.5-0.7-1.3-1-2.4-1c-1,0-1.7,0.4-2.2,1.1
		c-0.5,0.8-0.8,1.8-0.8,3.2c0,1.4,0.3,2.5,0.8,3.2s1.3,1.1,2.2,1.1c1.1,0,1.9-0.3,2.4-0.9s0.8-1.6,0.8-3v-0.4
		C162.1,1034.3,162.1,1034,162,1033.7z M162,1033.7v-0.4c0-0.2-0.1-0.4-0.1-0.6l0,0c-0.1-0.6-0.4-1-0.6-1.3c-0.5-0.7-1.3-1-2.4-1
		c-1,0-1.7,0.4-2.2,1.1c-0.5,0.8-0.8,1.8-0.8,3.2c0,1.4,0.3,2.5,0.8,3.2s1.3,1.1,2.2,1.1c1.1,0,1.9-0.3,2.4-0.9s0.8-1.6,0.8-3v-0.4
		C162.1,1034.3,162.1,1034,162,1033.7z M148.2,1034.8c-0.9,0-1.6,0.2-2.1,0.3c-0.1,0-0.1,0-0.2,0.1c0,0,0,0-0.1,0
		c-0.1,0.1-0.3,0.1-0.4,0.2c-0.6,0.4-0.9,0.9-0.9,1.7c0,0.6,0.2,1,0.5,1.4c0.4,0.3,0.9,0.5,1.5,0.5c1,0,1.8-0.3,2.4-0.8
		c0.6-0.6,0.9-1.3,0.9-2.4v-1L148.2,1034.8L148.2,1034.8z M127.3,1034.8c-1.1,0-2,0.2-2.6,0.5c-0.1,0-0.2,0.1-0.2,0.1
		c-0.6,0.4-0.9,0.9-0.9,1.7c0,0.6,0.2,1,0.5,1.4s0.9,0.5,1.5,0.5c1,0,1.8-0.3,2.4-0.8c0.6-0.6,0.9-1.3,0.9-2.4v-1L127.3,1034.8
		L127.3,1034.8z M148.2,1034.8c-0.9,0-1.6,0.2-2.1,0.3c-0.1,0-0.1,0-0.2,0.1c0,0,0,0-0.1,0c-0.1,0.1-0.3,0.1-0.4,0.2
		c-0.6,0.4-0.9,0.9-0.9,1.7c0,0.6,0.2,1,0.5,1.4c0.4,0.3,0.9,0.5,1.5,0.5c1,0,1.8-0.3,2.4-0.8c0.6-0.6,0.9-1.3,0.9-2.4v-1
		L148.2,1034.8L148.2,1034.8z M162,1033.7v-0.4c0-0.2-0.1-0.4-0.1-0.6l0,0c-0.1-0.6-0.4-1-0.6-1.3c-0.5-0.7-1.3-1-2.4-1
		c-1,0-1.7,0.4-2.2,1.1c-0.5,0.8-0.8,1.8-0.8,3.2c0,1.4,0.3,2.5,0.8,3.2s1.3,1.1,2.2,1.1c1.1,0,1.9-0.3,2.4-0.9s0.8-1.6,0.8-3v-0.4
		C162.1,1034.3,162.1,1034,162,1033.7z M162,1033.7v-0.4c0-0.2-0.1-0.4-0.1-0.6l0,0c-0.1-0.6-0.4-1-0.6-1.3c-0.5-0.7-1.3-1-2.4-1
		c-1,0-1.7,0.4-2.2,1.1c-0.5,0.8-0.8,1.8-0.8,3.2c0,1.4,0.3,2.5,0.8,3.2s1.3,1.1,2.2,1.1c1.1,0,1.9-0.3,2.4-0.9s0.8-1.6,0.8-3v-0.4
		C162.1,1034.3,162.1,1034,162,1033.7z M148.2,1034.8c-0.9,0-1.6,0.2-2.1,0.3c-0.1,0-0.1,0-0.2,0.1c0,0,0,0-0.1,0
		c-0.1,0.1-0.3,0.1-0.4,0.2c-0.6,0.4-0.9,0.9-0.9,1.7c0,0.6,0.2,1,0.5,1.4c0.4,0.3,0.9,0.5,1.5,0.5c1,0,1.8-0.3,2.4-0.8
		c0.6-0.6,0.9-1.3,0.9-2.4v-1L148.2,1034.8L148.2,1034.8z M148.2,1034.8c-0.9,0-1.6,0.2-2.1,0.3c-0.1,0-0.1,0-0.2,0.1c0,0,0,0-0.1,0
		c-0.1,0.1-0.3,0.1-0.4,0.2c-0.6,0.4-0.9,0.9-0.9,1.7c0,0.6,0.2,1,0.5,1.4c0.4,0.3,0.9,0.5,1.5,0.5c1,0,1.8-0.3,2.4-0.8
		c0.6-0.6,0.9-1.3,0.9-2.4v-1L148.2,1034.8L148.2,1034.8z M162,1033.7v-0.4c0-0.2-0.1-0.4-0.1-0.6l0,0c-0.1-0.6-0.4-1-0.6-1.3
		c-0.5-0.7-1.3-1-2.4-1c-1,0-1.7,0.4-2.2,1.1c-0.5,0.8-0.8,1.8-0.8,3.2c0,1.4,0.3,2.5,0.8,3.2s1.3,1.1,2.2,1.1
		c1.1,0,1.9-0.3,2.4-0.9s0.8-1.6,0.8-3v-0.4C162.1,1034.3,162.1,1034,162,1033.7z M162,1033.7v-0.4c0-0.2-0.1-0.4-0.1-0.6l0,0
		c-0.1-0.6-0.4-1-0.6-1.3c-0.5-0.7-1.3-1-2.4-1c-1,0-1.7,0.4-2.2,1.1c-0.5,0.8-0.8,1.8-0.8,3.2c0,1.4,0.3,2.5,0.8,3.2
		s1.3,1.1,2.2,1.1c1.1,0,1.9-0.3,2.4-0.9s0.8-1.6,0.8-3v-0.4C162.1,1034.3,162.1,1034,162,1033.7z M148.2,1034.8
		c-0.9,0-1.6,0.2-2.1,0.3c-0.1,0-0.1,0-0.2,0.1c0,0,0,0-0.1,0c-0.1,0.1-0.3,0.1-0.4,0.2c-0.6,0.4-0.9,0.9-0.9,1.7
		c0,0.6,0.2,1,0.5,1.4c0.4,0.3,0.9,0.5,1.5,0.5c1,0,1.8-0.3,2.4-0.8c0.6-0.6,0.9-1.3,0.9-2.4v-1L148.2,1034.8L148.2,1034.8z
		 M162,1033.7v-0.4c0-0.2-0.1-0.4-0.1-0.6l0,0c-0.1-0.6-0.4-1-0.6-1.3c-0.5-0.7-1.3-1-2.4-1c-1,0-1.7,0.4-2.2,1.1
		c-0.5,0.8-0.8,1.8-0.8,3.2c0,1.4,0.3,2.5,0.8,3.2s1.3,1.1,2.2,1.1c1.1,0,1.9-0.3,2.4-0.9s0.8-1.6,0.8-3v-0.4
		C162.1,1034.3,162.1,1034,162,1033.7z M162,1033.7v-0.4c0-0.2-0.1-0.4-0.1-0.6l0,0c-0.1-0.6-0.4-1-0.6-1.3c-0.5-0.7-1.3-1-2.4-1
		c-1,0-1.7,0.4-2.2,1.1c-0.5,0.8-0.8,1.8-0.8,3.2c0,1.4,0.3,2.5,0.8,3.2s1.3,1.1,2.2,1.1c1.1,0,1.9-0.3,2.4-0.9s0.8-1.6,0.8-3v-0.4
		C162.1,1034.3,162.1,1034,162,1033.7z"/>
</g>
</svg>
